<?xml version="1.0" encoding="utf-8"?>
<!-- Generator: Adobe Illustrator 18.1.1, SVG Export Plug-In . SVG Version: 6.00 Build 0)  -->
<!DOCTYPE svg PUBLIC "-//W3C//DTD SVG 1.1//EN" "http://www.w3.org/Graphics/SVG/1.1/DTD/svg11.dtd">
<svg version="1.1" id="Layer_1" xmlns="http://www.w3.org/2000/svg" xmlns:xlink="http://www.w3.org/1999/xlink" x="0px" y="0px"
	 viewBox="0 913.1 595.3 327.7" enable-background="new 0 913.1 595.3 327.7" xml:space="preserve">
<g id="Solid">
</g>
<g id="Colours">
</g>
<g id="Vertical">
</g>
<g id="Horizontal">
</g>
<g id="Lines">
</g>
<g id="Content">
	<g id="New_Symbol_7">
	</g>
</g>
<path fill="#FFFFFF" d="M187.6,965.9c2,0,3.8-1.7,3.8-3.8c0-2.2-1.8-3.8-3.8-3.8c-2,0-3.8,1.8-3.8,3.8
	C183.8,964.2,185.6,965.9,187.6,965.9z"/>
<g>
	<path fill="#FFFFFF" d="M357.2,1143.2c15.6,0,28.3-12.7,28.3-28.3s-12.7-28.3-28.3-28.3c-15.6,0-28.3,12.7-28.3,28.3
		C328.9,1130.6,341.7,1143.2,357.2,1143.2z M357.2,1087c15.3,0,27.9,12.5,27.9,27.9c0,15.3-12.4,27.9-27.9,27.9
		s-27.9-12.5-27.9-27.9C329.4,1099.5,341.8,1087,357.2,1087z"/>
	<path fill="#FFFFFF" d="M357.2,1162c26.1,0,47.2-21.2,47.2-47.2s-21.2-47.2-47.2-47.2c-26,0-47.2,21.1-47.2,47.2
		C310,1140.8,331.2,1162,357.2,1162z M357.2,1068.4c25.6,0,46.5,20.9,46.5,46.5s-20.8,46.5-46.5,46.5s-46.5-20.9-46.5-46.5
		C310.7,1089.2,331.6,1068.4,357.2,1068.4z"/>
	<rect x="51.8" y="935.2" fill="#FFFFFF" width="50.3" height="3.1"/>
	<rect x="159.2" y="933.7" fill="#FFFFFF" width="67.8" height="4.5"/>
	<path fill="#FFFFFF" d="M48.9,933.7h3h50.3h2c2.5,0,4.8-1.9,4.8-4.5v-6.6c0-2.5-2.3-4.8-4.8-4.8H48.9c-2.5,0-4.6,2.3-4.6,4.8v6.6
		C44.2,931.8,46.3,933.7,48.9,933.7z M107.4,920.7h0.7v9.9h-0.7V920.7z M105.2,920.7h0.7v9.9h-0.7V920.7z M102.9,920.7h0.7v9.9h-0.7
		V920.7z M100.6,920.7h0.7v9.9h-0.7V920.7z M98.3,920.7H99v9.9h-0.7V920.7z M96,920.7h0.7v9.9H96V920.7z M93.7,920.7h0.7v9.9h-0.7
		V920.7z M91.5,920.7h0.7v9.9h-0.7V920.7z M89.2,920.7h0.7v9.9h-0.7V920.7z M86.8,920.7h0.7v9.9h-0.7V920.7z M84.6,920.7h0.7v9.9
		h-0.7V920.7z M82.3,920.7H83v9.9h-0.7V920.7z M80,920.7h0.7v9.9H80V920.7z M77.7,920.7h0.7v9.9h-0.7V920.7z M75.5,920.7h0.7v9.9
		h-0.7V920.7z M73.1,920.7h0.7v9.9h-0.7V920.7z M70.8,920.7h0.7v9.9h-0.7V920.7z M68.6,920.7h0.7v9.9h-0.7V920.7z M66.3,920.7H67
		v9.9h-0.7V920.7z M64,920.7h0.7v9.9H64V920.7z M61.7,920.7h0.7v9.9h-0.7V920.7z M59.4,920.7h0.7v9.9h-0.7V920.7z M57.1,920.7h0.7
		v9.9h-0.7V920.7z M54.9,920.7h0.7v9.9h-0.7V920.7z M52.6,920.7h0.7v9.9h-0.7V920.7z M50.3,920.7H51v9.9h-0.7V920.7z M48,920.7h0.7
		v9.9H48V920.7z M45.7,920.7h0.7v9.9h-0.7V920.7z"/>
	<path fill="#FFFFFF" d="M154.7,932.1h4.5H227h2.1c2.8,0,4.8-2.5,4.8-5.3v-8.9c0-2.8-2.1-4.8-4.8-4.8h-74.4c-2.8,0-5.4,2.1-5.4,4.8
		v9C149.3,929.6,151.9,932.1,154.7,932.1z M230.9,915.4h0.7v13.7h-0.7V915.4z M228.6,915.4h0.7v13.7h-0.7V915.4z M226.3,915.4h0.7
		v13.7h-0.7V915.4z M224,915.4h0.7v13.7H224V915.4z M221.7,915.4h0.7v13.7h-0.7V915.4z M219.4,915.4h0.7v13.7h-0.7V915.4z
		 M217.2,915.4h0.7v13.7h-0.7V915.4z M214.9,915.4h0.7v13.7h-0.7V915.4z M212.6,915.4h0.7v13.7h-0.7V915.4z M210.3,915.4h0.7v13.7
		h-0.7V915.4z M208,915.4h0.7v13.7H208V915.4z M205.7,915.4h0.7v13.7h-0.7V915.4z M203.4,915.4h0.7v13.7h-0.7V915.4z M201.2,915.4
		h0.7v13.7h-0.7V915.4z M198.9,915.4h0.7v13.7h-0.7V915.4z M196.6,915.4h0.7v13.7h-0.7V915.4z M194.3,915.4h0.7v13.7h-0.7V915.4z
		 M192,915.4h0.7v13.7H192V915.4z M189.7,915.4h0.7v13.7h-0.7V915.4z M187.5,915.4h0.7v13.7h-0.7V915.4z M185.2,915.4h0.7v13.7h-0.7
		V915.4z M182.9,915.4h0.7v13.7h-0.7V915.4z M180.6,915.4h0.7v13.7h-0.7V915.4z M178.3,915.4h0.7v13.7h-0.7V915.4z M176,915.4h0.7
		v13.7H176V915.4z M173.7,915.4h0.7v13.7h-0.7V915.4z M171.5,915.4h0.7v13.7h-0.7V915.4z M169.2,915.4h0.7v13.7h-0.7V915.4z
		 M166.8,915.4h0.7v13.7h-0.7V915.4z M164.6,915.4h0.7v13.7h-0.7V915.4z M162.3,915.4h0.7v13.7h-0.7V915.4z M160,915.4h0.7v13.7H160
		V915.4z M157.8,915.4h0.7v13.7h-0.7V915.4z M155.4,915.4h0.7v13.7h-0.7V915.4z M153.1,915.4h0.7v13.7h-0.7V915.4z"/>
	<path fill="#FFFFFF" d="M585.4,997.8l-9.2-1.7l0.1,1.5h-0.1c0,3.7-0.1,14.8-0.2,30.3c4.8-1.7,19.3-7.4,19.3-17.4
		C595.3,998.7,585.4,997.8,585.4,997.8z M583.3,1016.9c-3.9,0-7-3.1-7-7s3.1-7,7-7s7,3.1,7,7S587.2,1016.9,583.3,1016.9z"/>
	<path fill="#FFFFFF" d="M11.9,970c0,0-11.9,1-11.9,13.9c0,11.5,18.5,18.4,22.2,19.6l-0.1-34.3L11.9,970z M11.9,989.9
		c-3.9,0-7-3.1-7-7s3.1-7,7-7s7,3.1,7,7S15.8,989.9,11.9,989.9z"/>
	<path fill="#FFFFFF" d="M383,947.8c-1.3,0-2.5,1-2.5,2.5c0,1.5,1,2.5,2.5,2.5c1.3,0,2.5-1,2.5-2.5
		C385.5,948.8,384.3,947.8,383,947.8z"/>
	<path fill="#FFFFFF" d="M383.2,942h-0.1c-4.1,0-7.4,3.4-7.4,7.4v23.1c0,4.1,3.4,7.4,7.4,7.4h0.1c4.1,0,7.4-3.4,7.4-7.4v-23.1
		C390.6,945.2,387.3,942,383.2,942z M383,974.2c-1.8,0-3.2-1.4-3.2-3.2s1.4-3.2,3.2-3.2c1.8,0,3.2,1.4,3.2,3.2
		C386.2,972.8,384.7,974.2,383,974.2z M383,953.4c-1.8,0-3.2-1.4-3.2-3.2s1.4-3.2,3.2-3.2c1.8,0,3.2,1.4,3.2,3.2
		C386.2,951.9,384.7,953.4,383,953.4z"/>
	<path fill="#FFFFFF" d="M341.1,941.3h-64.3c-2.2,0-4,1.9-4,4v20.9c0,2.2,1.9,4,4,4h64.3c2.2,0,4-1.9,4-4v-20.9
		C345.2,943.1,343.4,941.3,341.1,941.3z M279.6,962.6h-0.7v-0.7h0.7V962.6z M279.6,955.7h-0.7V955h0.7V955.7z M279.6,949.6h-0.7
		v-0.7h0.7V949.6z M281.2,962.6h-0.7v-0.7h0.7V962.6z M281.2,955.7h-0.7V955h0.7V955.7z M281.2,949.6h-0.7v-0.7h0.7V949.6z
		 M282.7,962.6H282v-0.7h0.7V962.6z M282.7,955.7H282V955h0.7V955.7z M282.7,949.6H282v-0.7h0.7V949.6z M284.2,962.6h-0.7v-0.7h0.7
		V962.6z M284.2,955.7h-0.7V955h0.7V955.7z M284.2,949.6h-0.7v-0.7h0.7V949.6z M285.7,962.6H285v-0.7h0.7V962.6z M285.7,955.7H285
		V955h0.7V955.7z M285.7,949.6H285v-0.7h0.7V949.6z M287.3,962.6h-0.7v-0.7h0.7V962.6z M287.3,955.7h-0.7V955h0.7V955.7z
		 M287.3,949.6h-0.7v-0.7h0.7V949.6z M288.8,962.6H288v-0.7h0.7L288.8,962.6L288.8,962.6z M288.8,955.7H288V955h0.7L288.8,955.7
		L288.8,955.7z M288.8,949.6H288v-0.7h0.7L288.8,949.6L288.8,949.6z M290.3,962.6h-0.7v-0.7h0.7V962.6z M290.3,955.7h-0.7V955h0.7
		V955.7z M290.3,949.6h-0.7v-0.7h0.7V949.6z M291.8,962.6h-0.7v-0.7h0.7V962.6z M291.8,955.7h-0.7V955h0.7V955.7z M291.8,949.6h-0.7
		v-0.7h0.7V949.6z M293.4,962.6h-0.7v-0.7h0.7V962.6z M293.4,955.7h-0.7V955h0.7V955.7z M293.4,949.6h-0.7v-0.7h0.7V949.6z
		 M294.9,962.6h-0.7v-0.7h0.7V962.6z M294.9,955.7h-0.7V955h0.7V955.7z M294.9,949.6h-0.7v-0.7h0.7V949.6z M296.4,962.6h-0.7v-0.7
		h0.7V962.6z M296.4,955.7h-0.7V955h0.7V955.7z M296.4,949.6h-0.7v-0.7h0.7V949.6z M297.9,962.6h-0.7v-0.7h0.7V962.6z M297.9,955.7
		h-0.7V955h0.7V955.7z M297.9,949.6h-0.7v-0.7h0.7V949.6z M299.4,962.6h-0.7v-0.7h0.7V962.6z M299.4,955.7h-0.7V955h0.7V955.7z
		 M299.4,949.6h-0.7v-0.7h0.7V949.6z M301,962.6h-0.7v-0.7h0.7V962.6z M301,955.7h-0.7V955h0.7V955.7z M301,949.6h-0.7v-0.7h0.7
		V949.6z M302.5,962.6h-0.7v-0.7h0.7V962.6z M302.5,955.7h-0.7V955h0.7V955.7z M302.5,949.6h-0.7v-0.7h0.7V949.6z M304,962.6h-0.7
		v-0.7h0.7V962.6z M304,955.7h-0.7V955h0.7V955.7z M304,949.6h-0.7v-0.7h0.7V949.6z M305.5,962.6h-0.7v-0.7h0.7V962.6z M305.5,955.7
		h-0.7V955h0.7V955.7z M305.5,949.6h-0.7v-0.7h0.7V949.6z M307.1,962.6h-0.7v-0.7h0.7V962.6z M307.1,955.7h-0.7V955h0.7V955.7z
		 M307.1,949.6h-0.7v-0.7h0.7V949.6z M308.6,962.6h-0.7v-0.7h0.7V962.6z M308.6,955.7h-0.7V955h0.7V955.7z M308.6,949.6h-0.7v-0.7
		h0.7V949.6z M310.2,962.6h-0.7v-0.7h0.7V962.6z M310.2,955.7h-0.7V955h0.7V955.7z M310.2,949.6h-0.7v-0.7h0.7V949.6z M311.6,962.6
		h-0.7v-0.7h0.7V962.6z M311.6,955.7h-0.7V955h0.7V955.7z M311.6,949.6h-0.7v-0.7h0.7V949.6z M313.2,962.6h-0.7v-0.7h0.7V962.6z
		 M313.2,955.7h-0.7V955h0.7V955.7z M313.2,949.6h-0.7v-0.7h0.7V949.6z M314.7,962.6H314v-0.7h0.7V962.6z M314.7,955.7H314V955h0.7
		V955.7z M314.7,949.6H314v-0.7h0.7V949.6z M316.3,962.6h-0.7v-0.7h0.7V962.6z M316.3,955.7h-0.7V955h0.7V955.7z M316.3,949.6h-0.7
		v-0.7h0.7V949.6z M317.8,962.6H317v-0.7h0.7L317.8,962.6L317.8,962.6z M317.8,955.7H317V955h0.7L317.8,955.7L317.8,955.7z
		 M317.8,949.6H317v-0.7h0.7L317.8,949.6L317.8,949.6z M319.2,962.6h-0.7v-0.7h0.7V962.6z M319.2,955.7h-0.7V955h0.7V955.7z
		 M319.2,949.6h-0.7v-0.7h0.7V949.6z M320.8,962.6h-0.7v-0.7h0.7V962.6z M320.8,955.7h-0.7V955h0.7V955.7z M320.8,949.6h-0.7v-0.7
		h0.7V949.6z M322.3,962.6h-0.7v-0.7h0.7V962.6z M322.3,955.7h-0.7V955h0.7V955.7z M322.3,949.6h-0.7v-0.7h0.7V949.6z M323.9,962.6
		h-0.7v-0.7h0.7V962.6z M323.9,955.7h-0.7V955h0.7V955.7z M323.9,949.6h-0.7v-0.7h0.7V949.6z M325.3,962.6h-0.7v-0.7h0.7V962.6z
		 M325.3,955.7h-0.7V955h0.7V955.7z M325.3,949.6h-0.7v-0.7h0.7V949.6z M326.9,962.6h-0.7v-0.7h0.7V962.6z M326.9,955.7h-0.7V955
		h0.7V955.7z M326.9,949.6h-0.7v-0.7h0.7V949.6z M328.4,962.6h-0.7v-0.7h0.7V962.6z M328.4,955.7h-0.7V955h0.7V955.7z M328.4,949.6
		h-0.7v-0.7h0.7V949.6z M330,962.6h-0.7v-0.7h0.7V962.6z M330,955.7h-0.7V955h0.7V955.7z M330,949.6h-0.7v-0.7h0.7V949.6z
		 M331.5,962.6h-0.7v-0.7h0.7V962.6z M331.5,955.7h-0.7V955h0.7V955.7z M331.5,949.6h-0.7v-0.7h0.7V949.6z M333,962.6h-0.7v-0.7h0.7
		V962.6z M333,955.7h-0.7V955h0.7V955.7z M333,949.6h-0.7v-0.7h0.7V949.6z M334.5,962.6h-0.7v-0.7h0.7V962.6z M334.5,955.7h-0.7V955
		h0.7V955.7z M334.5,949.6h-0.7v-0.7h0.7V949.6z M336.1,962.6h-0.7v-0.7h0.7V962.6z M336.1,955.7h-0.7V955h0.7V955.7z M336.1,949.6
		h-0.7v-0.7h0.7V949.6z"/>
	<path fill="#FFFFFF" d="M383,968.6c-1.3,0-2.5,1-2.5,2.5s1,2.5,2.5,2.5c1.3,0,2.5-1,2.5-2.5S384.3,968.6,383,968.6z"/>
	<path fill="#FFFFFF" d="M214.3,980.3c-0.1-0.1-0.3-0.2-0.3-0.4l0.1-15c0-0.2-0.1-5.3-5.1-6.6c-4.6-1.2-6.6-0.2-9.4,4.8
		c-2.8,5.1-13.9,30.4-14,30.6c0,0,0,0,0,0.1h0.1c-1.1,2.8-1.7,5.7-1.7,8.8c0,13,10.5,23.4,23.4,23.4c13,0,23.2-10.3,23.4-23.5
		C231.1,992.1,224.6,983.6,214.3,980.3z M206.7,960.7c2.5,0,4.5,2.1,4.5,4.5c0,2.5-2.1,4.5-4.5,4.5s-4.5-2.1-4.5-4.5
		C202.2,962.7,204.2,960.7,206.7,960.7z M207.4,1019c-9,0-16.2-7.3-16.2-16.2s7.3-16.2,16.2-16.2c8.9,0,16.2,7.3,16.2,16.2
		C223.7,1011.7,216.4,1019,207.4,1019z"/>
	<path fill="#FFFFFF" d="M525.7,931.4H439c-2.6,0-4.6,2.1-4.6,4.6v57.7c0,2.6,2.1,4.6,4.6,4.6h86.7c2.6,0,4.6-2.1,4.6-4.6V936
		C530.3,933.5,528.3,931.4,525.7,931.4z M519.7,989.5c0,1.6-1.3,2.8-2.8,2.8h-68.2c-1.6,0-2.8-1.3-2.8-2.8v-46.9
		c0-1.6,1.3-2.8,2.8-2.8h68.2c1.6,0,2.8,1.3,2.8,2.8V989.5z"/>
	<path fill="#FFFFFF" d="M246.1,994.2c-5.8,0-10.5,4.7-10.5,10.5s4.7,10.5,10.5,10.5c5.8,0,10.5-4.7,10.5-10.5
		C256.7,998.9,251.9,994.2,246.1,994.2z"/>
	<path fill="#FFFFFF" d="M207.4,987.2c-8.6,0-15.5,6.9-15.5,15.5s6.9,15.5,15.5,15.5s15.5-6.9,15.5-15.5
		C222.9,994.2,215.9,987.2,207.4,987.2z"/>
	<path fill="#FFFFFF" d="M206.7,969.1c2.2,0,3.8-1.8,3.8-3.8s-1.8-3.8-3.8-3.8c-2,0-3.8,1.8-3.8,3.8S204.6,969.1,206.7,969.1z"/>
	<path fill="#FFFFFF" d="M227.9,989.3l-0.1-0.1L227.9,989.3L227.9,989.3z"/>
	<path fill="#FFFFFF" d="M569.5,1146.3c-11.1,0-13.2-10.4-13.2-10.5v-0.1v-48.6c0-0.1,0-0.1,0-0.1c0.1-8,6.1-10,6.1-10l10.7-5.8
		c0.4-0.1,0.7-0.2,1-0.3c0.1-15.7,0.1-30.2,0.2-42.2c0.1-19.5,0.2-32.3,0.2-32.3V996l-3-72.2c0,0,0-3.6-6.9-5.6s-16.8-3.6-16.8-3.6
		H253.4c0,0-0.7-0.1-1.7-0.1c-3.1,0-9.3,1-9.3,9.2v16.2h-15.2h-67.8h-57.1H51.8H38.1c0,0-0.1,0.1-0.5,0.1c-0.9,0-3.1,0.3-5.7,1.9
		L24,967.8l0.2,258c0,0-0.9,15,15.9,15c9.3,0,165.7,0,303.8,0c-63.5-6.7-113.3-60.6-113.3-126c0-64.2,48-117.4,110-125.6v-0.7h0.7
		v0.6c0.2,0,0.5-0.1,0.7-0.1v-0.4h0.7v0.4c0.2,0,0.5-0.1,0.7-0.1v-0.4h0.7v0.3c0.2,0,0.5-0.1,0.7-0.1v-0.2h0.7v0.1
		c0.2,0,0.5-0.1,0.7-0.1v-0.1h0.7c3.2-0.2,6.5-0.4,9.8-0.4c69.8,0,126.6,56.8,126.6,126.6c0,42.2-20.7,81.2-55.6,104.9v0.5H427
		c-0.2,0.1-0.4,0.3-0.6,0.4c-17,11.2-36.2,18-56.3,20.1c100.7,0,185.3,0,185.3,0s0,0,0.1,0c1,0,18.1-0.1,17.8-15.5
		c-0.1-6,0-39.4,0.1-79C572.8,1146.3,571.4,1146.3,569.5,1146.3z M25.2,1220.2h-0.7v-0.7h0.7V1220.2z M26.7,1220.2H26v-0.7h0.7
		V1220.2z M26.7,989.3H26v-0.7h0.7V989.3z M27.4,988.5h0.7v0.7h-0.7V988.5z M28.2,1220.2h-0.7v-0.7h0.7V1220.2z M29.7,1220.2H29
		v-0.7h0.7V1220.2z M29.7,989.3H29v-0.7h0.7V989.3z M31.2,1220.2h-0.7v-0.7h0.7V1220.2z M31.2,989.3h-0.7v-0.7h0.7V989.3z
		 M32.8,1220.2H32v-0.7h0.7L32.8,1220.2L32.8,1220.2z M32.8,989.3H32v-0.7h0.7L32.8,989.3L32.8,989.3z M34.3,1220.2h-0.7v-0.7h0.7
		V1220.2z M34.3,989.3h-0.7v-0.7h0.7V989.3z M35.8,1220.2h-0.7v-0.7h0.7V1220.2z M35.8,989.3h-0.7v-0.7h0.7V989.3z M37.3,1220.2
		h-0.7v-0.7h0.7V1220.2z M37.3,989.3h-0.7v-0.7h0.7V989.3z M141,1104.3c0-0.2,0.1-0.4,0.4-0.4c-0.2,0-0.4-0.1-0.4-0.4v-0.7
		c0-0.2,0.1-0.4,0.4-0.4c-0.2,0-0.4-0.1-0.4-0.4v-0.7c0-0.2,0.1-0.4,0.4-0.4c-0.2,0-0.4-0.1-0.4-0.4v-0.7c0-0.2,0.1-0.4,0.4-0.4
		c-0.2,0-0.4-0.1-0.4-0.4v-0.7c0-0.2,0.1-0.4,0.4-0.4c-0.2,0-0.4-0.1-0.4-0.4v-0.7c0-0.2,0.1-0.4,0.4-0.4c-0.2,0-0.4-0.1-0.4-0.4
		v-0.7c0-0.2,0.1-0.4,0.4-0.4c-0.2,0-0.4-0.1-0.4-0.4v-0.7c0-0.2,0.1-0.4,0.4-0.4c-0.2,0-0.4-0.1-0.4-0.4v-0.7
		c0-0.2,0.1-0.4,0.4-0.4c-0.2,0-0.4-0.1-0.4-0.4v-0.7c0-0.2,0.1-0.4,0.4-0.4c-0.2,0-0.4-0.1-0.4-0.4v-0.7c0-0.2,0.1-0.4,0.4-0.4
		c-0.2,0-0.4-0.1-0.4-0.4v-0.7c0-0.2,0.1-0.4,0.4-0.4c-0.2,0-0.4-0.1-0.4-0.4v-0.7c0-0.2,0.1-0.4,0.4-0.4c-0.2,0-0.4-0.1-0.4-0.4
		v-0.7c0-0.2,0.1-0.4,0.4-0.4c-0.2,0-0.4-0.1-0.4-0.4v-0.7c0-0.2,0.1-0.4,0.4-0.4c-0.2,0-0.4-0.1-0.4-0.4v-0.7
		c0-0.2,0.1-0.4,0.4-0.4c-0.2,0-0.4-0.1-0.4-0.4v-0.7c0-0.2,0.1-0.4,0.4-0.4c-0.2,0-0.4-0.1-0.4-0.4v-0.7c0-0.2,0.1-0.4,0.4-0.4
		c-0.2,0-0.4-0.1-0.4-0.4v-0.7c0-0.2,0.1-0.4,0.4-0.4c-0.2,0-0.4-0.1-0.4-0.4v-0.7c0-0.2,0.1-0.4,0.4-0.4c-0.2,0-0.4-0.1-0.4-0.4
		v-0.7c0-0.2,0.1-0.4,0.4-0.4c-0.2,0-0.4-0.1-0.4-0.4v-0.7c0-0.2,0.1-0.4,0.4-0.4c-0.2,0-0.4-0.1-0.4-0.4v-0.7
		c0-0.2,0.1-0.4,0.4-0.4c-0.2,0-0.4-0.1-0.4-0.4v-0.7c0-0.2,0.1-0.4,0.4-0.4c-0.2,0-0.4-0.1-0.4-0.4v-0.7c0-0.2,0.1-0.4,0.4-0.4
		c-0.2,0-0.4-0.1-0.4-0.4v-0.7c0-0.2,0.1-0.4,0.4-0.4c-0.2,0-0.4-0.1-0.4-0.4v-0.7c0-0.2,0.1-0.4,0.4-0.4c-0.2,0-0.4-0.1-0.4-0.4
		v-0.7c0-0.2,0.1-0.4,0.4-0.4c-0.2,0-0.4-0.1-0.4-0.4v-0.7c0-0.2,0.1-0.4,0.4-0.4c-0.2,0-0.4-0.1-0.4-0.4v-0.4
		c0-0.2,0.1-0.4,0.4-0.4c-0.2,0-0.4-0.1-0.4-0.4v-0.7c0-0.2,0.1-0.4,0.4-0.4c-0.2,0-0.4-0.1-0.4-0.4v-0.7c0-0.2,0.1-0.4,0.4-0.4
		c-0.2,0-0.4-0.1-0.4-0.4v-0.7c0-0.2,0.1-0.4,0.4-0.4c-0.2,0-0.4-0.1-0.4-0.4v-0.7c0-0.2,0.1-0.4,0.4-0.4c-0.2,0-0.4-0.1-0.4-0.4
		v-0.7c0-0.2,0.1-0.4,0.4-0.4c-0.2,0-0.4-0.1-0.4-0.4v-0.7c0-0.2,0.1-0.4,0.4-0.4c-0.2,0-0.4-0.1-0.4-0.4v-0.7
		c0-0.2,0.1-0.4,0.4-0.4c-0.2,0-0.4-0.1-0.4-0.4v-0.7c0-0.2,0.1-0.4,0.4-0.4c-0.2,0-0.4-0.1-0.4-0.4v-0.7c0-0.2,0.1-0.4,0.4-0.4
		c-0.2,0-0.4-0.1-0.4-0.4v-0.7c0-0.2,0.1-0.4,0.4-0.4c-0.2,0-0.4-0.1-0.4-0.4v-0.7c0-0.2,0.1-0.4,0.4-0.4c-0.2,0-0.4-0.1-0.4-0.4
		v-0.7c0-0.2,0.1-0.4,0.4-0.4c-0.2,0-0.4-0.1-0.4-0.4v-0.7c0-0.2,0.1-0.4,0.4-0.4c-0.2,0-0.4-0.1-0.4-0.4v-0.7
		c0-0.2,0.1-0.4,0.4-0.4c-0.2,0-0.4-0.1-0.4-0.4v-0.7c0-0.2,0.1-0.4,0.4-0.4c-0.2,0-0.4-0.1-0.4-0.4v-0.7c0-0.2,0.1-0.4,0.4-0.4
		c-0.2,0-0.4-0.1-0.4-0.4v-0.7c0-0.2,0.1-0.4,0.4-0.4c-0.2,0-0.4-0.1-0.4-0.4v-0.7c0-0.2,0.1-0.4,0.4-0.4c-0.2,0-0.4-0.1-0.4-0.4
		v-0.7c0-0.2,0.1-0.4,0.4-0.4c-0.2,0-0.4-0.1-0.4-0.4v-0.7c0-0.2,0.1-0.4,0.4-0.4c-0.2,0-0.4-0.1-0.4-0.4v-0.7
		c0-0.2,0.1-0.4,0.4-0.4c-0.2,0-0.4-0.1-0.4-0.4v-0.7c0-0.2,0.1-0.4,0.4-0.4c-0.2,0-0.4-0.1-0.4-0.4v-0.7c0-0.2,0.1-0.4,0.4-0.4
		c-0.2,0-0.4-0.1-0.4-0.4v-0.7c0-0.2,0.1-0.4,0.4-0.4c-0.2,0-0.4-0.1-0.4-0.4v-0.7c0-0.2,0.1-0.4,0.4-0.4c-0.2,0-0.4-0.1-0.4-0.4
		v-0.7c0-0.2,0.1-0.4,0.4-0.4c-0.2,0-0.4-0.1-0.4-0.4v-0.7c0-0.2,0.1-0.4,0.4-0.4c-0.2,0-0.4-0.1-0.4-0.4v-0.7
		c0-0.2,0.1-0.4,0.4-0.4c-0.2,0-0.4-0.1-0.4-0.4v-0.7c0-0.2,0.1-0.4,0.4-0.4c-0.2,0-0.4-0.1-0.4-0.4v-0.7c0-0.2,0.1-0.4,0.4-0.4
		c-0.2,0-0.4-0.1-0.4-0.4v-0.7c0-0.2,0.1-0.4,0.4-0.4c-0.2,0-0.4-0.1-0.4-0.4v-0.7c0-0.2,0.1-0.4,0.4-0.4c-0.2,0-0.4-0.1-0.4-0.4
		v-0.7c0-0.2,0.1-0.4,0.4-0.4c-0.2,0-0.4-0.1-0.4-0.4v-0.7c0-0.2,0.1-0.4,0.4-0.4c-0.2,0-0.4-0.1-0.4-0.4v-0.7
		c0-0.2,0.1-0.4,0.4-0.4c-0.2,0-0.4-0.1-0.4-0.4v-0.7c0-0.2,0.1-0.4,0.4-0.4c-0.2,0-0.4-0.1-0.4-0.4v-0.7c0-0.2,0.1-0.4,0.4-0.4
		c-0.2,0-0.4-0.1-0.4-0.4v-0.7c0-0.2,0.1-0.4,0.4-0.4c-0.2,0-0.4-0.1-0.4-0.4v-0.7c0-0.2,0.1-0.4,0.4-0.4c0.3,0,0.4,0.1,0.4,0.4v0.7
		c0,0.2-0.1,0.4-0.4,0.4c0.2,0,0.4,0.1,0.4,0.4v0.7c0,0.2-0.1,0.4-0.4,0.4c0.2,0,0.4,0.1,0.4,0.4v0.7c0,0.2-0.1,0.4-0.4,0.4
		c0.2,0,0.4,0.1,0.4,0.4v0.7c0,0.2-0.1,0.4-0.4,0.4c0.2,0,0.4,0.1,0.4,0.4v0.7c0,0.2-0.1,0.4-0.4,0.4c0.2,0,0.4,0.1,0.4,0.4v0.7
		c0,0.2-0.1,0.4-0.4,0.4c0.2,0,0.4,0.1,0.4,0.4v0.7c0,0.2-0.1,0.4-0.4,0.4c0.2,0,0.4,0.1,0.4,0.4v0.7c0,0.2-0.1,0.4-0.4,0.4
		c0.2,0,0.4,0.1,0.4,0.4v0.7c0,0.2-0.1,0.4-0.4,0.4c0.2,0,0.4,0.1,0.4,0.4v0.7c0,0.2-0.1,0.4-0.4,0.4c0.2,0,0.4,0.1,0.4,0.4v0.7
		c0,0.2-0.1,0.4-0.4,0.4c0.2,0,0.4,0.1,0.4,0.4v0.7c0,0.2-0.1,0.4-0.4,0.4c0.2,0,0.4,0.1,0.4,0.4v0.7c0,0.2-0.1,0.4-0.4,0.4
		c0.2,0,0.4,0.1,0.4,0.4v0.7c0,0.2-0.1,0.4-0.4,0.4c0.2,0,0.4,0.1,0.4,0.4v0.7c0,0.2-0.1,0.4-0.4,0.4c0.2,0,0.4,0.1,0.4,0.4v0.7
		c0,0.2-0.1,0.4-0.4,0.4c0.2,0,0.4,0.1,0.4,0.4v0.7c0,0.2-0.1,0.4-0.4,0.4c0.2,0,0.4,0.1,0.4,0.4v0.7c0,0.2-0.1,0.4-0.4,0.4
		c0.2,0,0.4,0.1,0.4,0.4v0.7c0,0.2-0.1,0.4-0.4,0.4c0.2,0,0.4,0.1,0.4,0.4v0.7c0,0.2-0.1,0.4-0.4,0.4c0.2,0,0.4,0.1,0.4,0.4v0.7
		c0,0.2-0.1,0.4-0.4,0.4c0.2,0,0.4,0.1,0.4,0.4v0.7c0,0.2-0.1,0.4-0.4,0.4c0.2,0,0.4,0.1,0.4,0.4v0.7c0,0.2-0.1,0.4-0.4,0.4
		c0.2,0,0.4,0.1,0.4,0.4v0.7c0,0.2-0.1,0.4-0.4,0.4c0.2,0,0.4,0.1,0.4,0.4v0.7c0,0.2-0.1,0.4-0.4,0.4c0.2,0,0.4,0.1,0.4,0.4v0.7
		c0,0.2-0.1,0.4-0.4,0.4c0.2,0,0.4,0.1,0.4,0.4v0.7c0,0.2-0.1,0.4-0.4,0.4c0.2,0,0.4,0.1,0.4,0.4v0.7c0,0.2-0.1,0.4-0.4,0.4
		c0.2,0,0.4,0.1,0.4,0.4v0.7c0,0.2-0.1,0.4-0.4,0.4c0.2,0,0.4,0.1,0.4,0.4v0.7c0,0.2-0.1,0.4-0.4,0.4c0.2,0,0.4,0.1,0.4,0.4v0.7
		c0,0.2-0.1,0.4-0.4,0.4c0.2,0,0.4,0.1,0.4,0.4v0.7c0,0.2-0.1,0.4-0.4,0.4c0.2,0,0.4,0.1,0.4,0.4v0.7c0,0.2-0.1,0.4-0.4,0.4
		c0.2,0,0.4,0.1,0.4,0.4v0.7c0,0.2-0.1,0.4-0.4,0.4c0.2,0,0.4,0.1,0.4,0.4v0.7c0,0.2-0.1,0.4-0.4,0.4c0.2,0,0.4,0.1,0.4,0.4v0.7
		c0,0.2-0.1,0.4-0.4,0.4c0.2,0,0.4,0.1,0.4,0.4v0.7c0,0.2-0.1,0.4-0.4,0.4c0.2,0,0.4,0.1,0.4,0.4v0.7c0,0.2-0.1,0.4-0.4,0.4
		c0.2,0,0.4,0.1,0.4,0.4v0.7c0,0.2-0.1,0.4-0.4,0.4c0.2,0,0.4,0.1,0.4,0.4v0.7c0,0.2-0.1,0.4-0.4,0.4c0.2,0,0.4,0.1,0.4,0.4v0.7
		c0,0.2-0.1,0.4-0.4,0.4c0.2,0,0.4,0.1,0.4,0.4v0.7c0,0.2-0.1,0.4-0.4,0.4c0.2,0,0.4,0.1,0.4,0.4v0.7c0,0.2-0.1,0.4-0.4,0.4
		c0.2,0,0.4,0.1,0.4,0.4v0.7c0,0.2-0.1,0.4-0.4,0.4c0.2,0,0.4,0.1,0.4,0.4v0.7c0,0.2-0.1,0.4-0.4,0.4c0.2,0,0.4,0.1,0.4,0.4v0.7
		c0,0.2-0.1,0.4-0.4,0.4c0.2,0,0.4,0.1,0.4,0.4v0.7c0,0.2-0.1,0.4-0.4,0.4c0.2,0,0.4,0.1,0.4,0.4v0.7c0,0.2-0.1,0.4-0.4,0.4
		c0.2,0,0.4,0.1,0.4,0.4v0.7c0,0.2-0.1,0.4-0.4,0.4c0.2,0,0.4,0.1,0.4,0.4v0.7c0,0.2-0.1,0.4-0.4,0.4c0.2,0,0.4,0.1,0.4,0.4v0.7
		c0,0.2-0.1,0.4-0.4,0.4c0.2,0,0.4,0.1,0.4,0.4v0.7c0,0.2-0.1,0.4-0.4,0.4c0.2,0,0.4,0.1,0.4,0.4v0.7c0,0.2-0.1,0.4-0.4,0.4
		c0.2,0,0.4,0.1,0.4,0.4v0.7c0,0.2-0.1,0.4-0.4,0.4c0.2,0,0.4,0.1,0.4,0.4v0.7c0,0.2-0.1,0.4-0.4,0.4c0.2,0,0.4,0.1,0.4,0.4v0.7
		c0,0.2-0.1,0.4-0.4,0.4c0.2,0,0.4,0.1,0.4,0.4v0.7c0,0.2-0.1,0.4-0.4,0.4c0.2,0,0.4,0.1,0.4,0.4v0.7c0,0.2-0.1,0.4-0.4,0.4
		c0.2,0,0.4,0.1,0.4,0.4v0.7c0,0.2-0.1,0.4-0.4,0.4c0.2,0,0.4,0.1,0.4,0.4v0.7c0,0.2-0.1,0.4-0.4,0.4c0.2,0,0.4,0.1,0.4,0.4v0.7
		c0,0.2-0.1,0.4-0.4,0.4c0.2,0,0.4,0.1,0.4,0.4v0.7c0,0.2-0.1,0.4-0.4,0.4c0.2,0,0.4,0.1,0.4,0.4v0.7c0,0.2-0.1,0.4-0.4,0.4
		c0.2,0,0.4,0.1,0.4,0.4v0.7c0,0.2-0.1,0.4-0.4,0.4c0.2,0,0.4,0.1,0.4,0.4v0.7c0,0.2-0.1,0.4-0.4,0.4c0.2,0,0.4,0.1,0.4,0.4v0.7
		c0,0.2-0.1,0.4-0.4,0.4c0.2,0,0.4,0.1,0.4,0.4v0.7c0,0.2-0.1,0.4-0.4,0.4c0.2,0,0.4,0.1,0.4,0.4v0.7c0,0.2-0.1,0.4-0.4,0.4
		c0.2,0,0.4,0.1,0.4,0.4v0.7c0,0.2-0.1,0.4-0.4,0.4c-0.2,0-0.4-0.1-0.4-0.4V1104.3z M111.3,988.5h0.7v0.7h-0.7V988.5z M109.7,988.5
		h0.7v0.7h-0.7V988.5z M108.2,988.5h0.7v0.7h-0.7V988.5z M106.7,988.5h0.7v0.7h-0.7V988.5z M105.2,988.5h0.7v0.7h-0.7V988.5z
		 M109,1005.7c2.4,0,4.2,1.9,4.2,4.2s-1.9,4.2-4.2,4.2c-2.4,0-4.2-1.9-4.2-4.2S106.6,1005.7,109,1005.7z M109,1018.8
		c2.4,0,4.2,1.9,4.2,4.2c0,2.4-1.9,4.2-4.2,4.2c-2.4,0-4.2-1.9-4.2-4.2C104.7,1020.8,106.6,1018.8,109,1018.8z M109,1031.9
		c2.4,0,4.2,1.9,4.2,4.2c0,2.4-1.9,4.2-4.2,4.2c-2.4,0-4.2-1.9-4.2-4.2C104.7,1033.9,106.6,1031.9,109,1031.9z M109,1045
		c2.4,0,4.2,1.9,4.2,4.2c0,2.4-1.9,4.2-4.2,4.2c-2.4,0-4.2-1.9-4.2-4.2S106.6,1045,109,1045z M109,1058.1c2.4,0,4.2,1.9,4.2,4.2
		c0,2.3-1.9,4.2-4.2,4.2c-2.4,0-4.2-1.9-4.2-4.2C104.7,1060,106.6,1058.1,109,1058.1z M109,1071.2c2.4,0,4.2,1.9,4.2,4.2
		s-1.9,4.2-4.2,4.2c-2.4,0-4.2-1.9-4.2-4.2C104.7,1073.1,106.6,1071.2,109,1071.2z M109,1084.3c2.4,0,4.2,1.9,4.2,4.2
		s-1.9,4.2-4.2,4.2c-2.4,0-4.2-1.9-4.2-4.2C104.7,1086.2,106.6,1084.3,109,1084.3z M109,1097.4c2.4,0,4.2,1.9,4.2,4.2
		s-1.9,4.2-4.2,4.2c-2.4,0-4.2-1.9-4.2-4.2C104.7,1099.3,106.6,1097.4,109,1097.4z M109,1110.4c2.4,0,4.2,1.9,4.2,4.2
		c0,2.4-1.9,4.2-4.2,4.2c-2.4,0-4.2-1.9-4.2-4.2C104.7,1112.4,106.6,1110.4,109,1110.4z M109,1123.6c2.4,0,4.2,1.9,4.2,4.2
		c0,2.4-1.9,4.2-4.2,4.2c-2.4,0-4.2-1.9-4.2-4.2C104.7,1125.5,106.6,1123.6,109,1123.6z M109,1136.7c2.4,0,4.2,1.9,4.2,4.2
		s-1.9,4.2-4.2,4.2c-2.4,0-4.2-1.9-4.2-4.2C104.7,1138.6,106.6,1136.7,109,1136.7z M109,1149.8c2.4,0,4.2,1.9,4.2,4.2
		s-1.9,4.2-4.2,4.2c-2.4,0-4.2-1.9-4.2-4.2C104.7,1151.7,106.6,1149.8,109,1149.8z M109,1162.9c2.4,0,4.2,1.9,4.2,4.2
		s-1.9,4.2-4.2,4.2c-2.4,0-4.2-1.9-4.2-4.2C104.7,1164.8,106.6,1162.9,109,1162.9z M99.1,988.5h0.7v0.7h-0.7V988.5z M97.6,988.5h0.7
		v0.7h-0.7V988.5z M96,988.5h0.7v0.7H96V988.5z M94.5,988.5h0.7v0.7h-0.7V988.5z M93,988.5h0.7v0.7H93V988.5z M85.4,988.5h0.7v0.7
		h-0.7V988.5z M83.8,988.5h0.7v0.7h-0.7V988.5z M82.3,988.5H83v0.7h-0.7V988.5z M80.7,988.5h0.7v0.7h-0.7V988.5z M79.3,988.5H80v0.7
		h-0.7V988.5z M82.8,1005.7c2.4,0,4.2,1.9,4.2,4.2s-1.9,4.2-4.2,4.2c-2.4,0-4.2-1.9-4.2-4.2C78.5,1007.6,80.4,1005.7,82.8,1005.7z
		 M82.8,1018.8c2.4,0,4.2,1.9,4.2,4.2s-1.9,4.2-4.2,4.2c-2.4,0-4.2-1.9-4.2-4.2C78.5,1020.7,80.4,1018.8,82.8,1018.8z M82.8,1031.9
		c2.4,0,4.2,1.9,4.2,4.2s-1.9,4.2-4.2,4.2c-2.4,0-4.2-1.9-4.2-4.2C78.5,1033.8,80.4,1031.9,82.8,1031.9z M82.8,1045
		c2.4,0,4.2,1.9,4.2,4.2s-1.9,4.2-4.2,4.2c-2.4,0-4.2-1.9-4.2-4.2S80.4,1045,82.8,1045z M82.8,1058.1c2.4,0,4.2,1.9,4.2,4.2
		c0,2.3-1.9,4.2-4.2,4.2c-2.4,0-4.2-1.9-4.2-4.2C78.5,1060,80.4,1058.1,82.8,1058.1z M82.8,1071.2c2.4,0,4.2,1.9,4.2,4.2
		s-1.9,4.2-4.2,4.2c-2.4,0-4.2-1.9-4.2-4.2S80.4,1071.2,82.8,1071.2z M82.8,1084.3c2.4,0,4.2,1.9,4.2,4.2s-1.9,4.2-4.2,4.2
		c-2.4,0-4.2-1.9-4.2-4.2C78.5,1086.2,80.4,1084.3,82.8,1084.3z M82.8,1097.4c2.4,0,4.2,1.9,4.2,4.2s-1.9,4.2-4.2,4.2
		c-2.4,0-4.2-1.9-4.2-4.2C78.5,1099.3,80.4,1097.4,82.8,1097.4z M82.8,1110.5c2.4,0,4.2,1.9,4.2,4.2s-1.9,4.2-4.2,4.2
		c-2.4,0-4.2-1.9-4.2-4.2C78.5,1112.4,80.4,1110.5,82.8,1110.5z M82.8,1123.6c2.4,0,4.2,1.9,4.2,4.2c0,2.4-1.9,4.2-4.2,4.2
		c-2.4,0-4.2-1.9-4.2-4.2C78.5,1125.5,80.4,1123.6,82.8,1123.6z M82.8,1136.6c2.4,0,4.2,1.9,4.2,4.2s-1.9,4.2-4.2,4.2
		c-2.4,0-4.2-1.9-4.2-4.2C78.5,1138.5,80.4,1136.6,82.8,1136.6z M82.8,1149.7c2.4,0,4.2,1.9,4.2,4.2c0,2.4-1.9,4.2-4.2,4.2
		c-2.4,0-4.2-1.9-4.2-4.2C78.5,1151.6,80.4,1149.7,82.8,1149.7z M82.8,1162.8c2.4,0,4.2,1.9,4.2,4.2c0,2.4-1.9,4.2-4.2,4.2
		c-2.4,0-4.2-1.9-4.2-4.2C78.5,1164.7,80.4,1162.8,82.8,1162.8z M82.8,1175.9c2.4,0,4.2,1.9,4.2,4.2s-1.9,4.2-4.2,4.2
		c-2.4,0-4.2-1.9-4.2-4.2C78.5,1177.8,80.4,1175.9,82.8,1175.9z M82.8,1189c2.4,0,4.2,1.9,4.2,4.2s-1.9,4.2-4.2,4.2
		c-2.4,0-4.2-1.9-4.2-4.2C78.6,1190.9,80.4,1189,82.8,1189z M73.1,988.5h0.7v0.7h-0.7V988.5z M71.7,988.5h0.7v0.7h-0.7V988.5z
		 M70.1,988.5h0.7v0.7h-0.7V988.5z M68.6,988.5h0.7v0.7h-0.7V988.5z M67,988.5h0.7v0.7H67V988.5z M65.5,988.5h0.7v0.7h-0.7V988.5z
		 M59.4,988.5h0.7v0.7h-0.7V988.5z M57.9,988.5h0.7v0.7h-0.7V988.5z M56.4,988.5h0.7v0.7h-0.7V988.5z M54.9,988.5h0.7v0.7h-0.7
		V988.5z M53.3,988.5H54v0.7h-0.7V988.5z M51.8,988.5h0.7v0.7h-0.7V988.5z M47.2,988.5H48v0.7h-0.7
		C47.2,989.3,47.2,988.5,47.2,988.5z M45.7,988.5h0.7v0.7h-0.7V988.5z M44.2,988.5h0.7v0.7h-0.7V988.5z M42.7,988.5h0.7v0.7h-0.7
		V988.5z M41.1,988.5h0.7v0.7h-0.7V988.5z M39.6,988.5h0.7v0.7h-0.7V988.5z M43.5,1005.7c2.4,0,4.2,1.9,4.2,4.2s-1.9,4.2-4.2,4.2
		c-2.4,0-4.2-1.9-4.2-4.2C39.3,1007.7,41.1,1005.7,43.5,1005.7z M43.5,1018.8c2.4,0,4.2,1.9,4.2,4.2c0,2.4-1.9,4.2-4.2,4.2
		c-2.4,0-4.2-1.9-4.2-4.2C39.3,1020.8,41.1,1018.8,43.5,1018.8z M43.5,1031.9c2.4,0,4.2,1.9,4.2,4.2c0,2.4-1.9,4.2-4.2,4.2
		c-2.4,0-4.2-1.9-4.2-4.2C39.3,1033.9,41.1,1031.9,43.5,1031.9z M43.5,1045c2.4,0,4.2,1.9,4.2,4.2c0,2.4-1.9,4.2-4.2,4.2
		c-2.4,0-4.2-1.9-4.2-4.2S41.1,1045,43.5,1045z M43.5,1058.1c2.4,0,4.2,1.9,4.2,4.2c0,2.3-1.9,4.2-4.2,4.2c-2.4,0-4.2-1.9-4.2-4.2
		C39.3,1060,41.1,1058.1,43.5,1058.1z M43.5,1071.2c2.4,0,4.2,1.9,4.2,4.2s-1.9,4.2-4.2,4.2c-2.4,0-4.2-1.9-4.2-4.2
		S41.1,1071.2,43.5,1071.2z M43.5,1084.3c2.4,0,4.2,1.9,4.2,4.2s-1.9,4.2-4.2,4.2c-2.4,0-4.2-1.9-4.2-4.2
		C39.3,1086.2,41.1,1084.3,43.5,1084.3z M43.5,1097.4c2.4,0,4.2,1.9,4.2,4.2s-1.9,4.2-4.2,4.2c-2.4,0-4.2-1.9-4.2-4.2
		S41.1,1097.4,43.5,1097.4z M43.5,1110.4c2.4,0,4.2,1.9,4.2,4.2c0,2.4-1.9,4.2-4.2,4.2c-2.4,0-4.2-1.9-4.2-4.2
		C39.3,1112.4,41.1,1110.4,43.5,1110.4z M43.5,1123.6c2.4,0,4.2,1.9,4.2,4.2c0,2.4-1.9,4.2-4.2,4.2c-2.4,0-4.2-1.9-4.2-4.2
		C39.3,1125.5,41.1,1123.6,43.5,1123.6z M43.5,1136.7c2.4,0,4.2,1.9,4.2,4.2s-1.9,4.2-4.2,4.2c-2.4,0-4.2-1.9-4.2-4.2
		S41.1,1136.7,43.5,1136.7z M43.5,1149.8c2.4,0,4.2,1.9,4.2,4.2s-1.9,4.2-4.2,4.2c-2.4,0-4.2-1.9-4.2-4.2S41.1,1149.8,43.5,1149.8z
		 M43.5,1162.9c2.4,0,4.2,1.9,4.2,4.2s-1.9,4.2-4.2,4.2c-2.4,0-4.2-1.9-4.2-4.2S41.1,1162.9,43.5,1162.9z M43.5,1175.9
		c2.4,0,4.2,1.9,4.2,4.2c0,2.4-1.9,4.2-4.2,4.2c-2.4,0-4.2-1.9-4.2-4.2S41.1,1175.9,43.5,1175.9z M38.9,1220.2h-0.7v-0.7h0.7V1220.2
		z M38.9,989.3h-0.7v-0.7h0.7V989.3z M40.4,1220.2h-0.7v-0.7h0.7V1220.2z M41.9,1220.2h-0.7v-0.7h0.7V1220.2z M43.4,1220.2h-0.7
		v-0.7h0.7V1220.2z M45,1220.2h-0.7v-0.7H45V1220.2z M46.5,1220.2h-0.7v-0.7h0.7V1220.2z M43.5,1197.4c-2.4,0-4.2-1.9-4.2-4.2
		s1.9-4.2,4.2-4.2c2.4,0,4.2,1.9,4.2,4.2C47.7,1195.7,45.9,1197.4,43.5,1197.4z M48,1220.2h-0.7v-0.7H48V1220.2z M49.5,1220.2h-0.7
		v-0.7h0.7V1220.2z M49.5,989.3h-0.7v-0.7h0.7V989.3z M51,1220.2h-0.7v-0.7H51V1220.2z M51,989.3h-0.7v-0.7H51V989.3z M52.6,1220.2
		h-0.7v-0.7h0.7V1220.2z M54.1,1220.2h-0.7v-0.7h0.7V1220.2z M55.6,1220.2h-0.7v-0.7h0.7V1220.2z M57.1,1220.2h-0.7v-0.7h0.7V1220.2
		z M58.7,1220.2H58v-0.7h0.7V1220.2z M60.2,1220.2h-0.7v-0.7h0.7V1220.2z M56.6,1197.4c-2.4,0-4.2-1.9-4.2-4.2s1.9-4.2,4.2-4.2
		s4.2,1.9,4.2,4.2C60.8,1195.7,58.9,1197.4,56.6,1197.4z M56.6,1184.4c-2.4,0-4.2-1.9-4.2-4.2c0-2.4,1.9-4.2,4.2-4.2
		s4.2,1.9,4.2,4.2C60.9,1182.5,58.9,1184.4,56.6,1184.4z M56.6,1171.3c-2.4,0-4.2-1.9-4.2-4.2c0-2.4,1.9-4.2,4.2-4.2
		s4.2,1.9,4.2,4.2C60.9,1169.4,58.9,1171.3,56.6,1171.3z M56.6,1158.2c-2.4,0-4.2-1.9-4.2-4.2c0-2.4,1.9-4.2,4.2-4.2
		s4.2,1.9,4.2,4.2C60.9,1156.3,58.9,1158.2,56.6,1158.2z M56.6,1145.1c-2.4,0-4.2-1.9-4.2-4.2s1.9-4.2,4.2-4.2s4.2,1.9,4.2,4.2
		S58.9,1145.1,56.6,1145.1z M56.6,1132c-2.4,0-4.2-1.9-4.2-4.2c0-2.3,1.9-4.2,4.2-4.2s4.2,1.9,4.2,4.2
		C60.8,1130.2,58.9,1132,56.6,1132z M56.6,1119c-2.4,0-4.2-1.9-4.2-4.2c0-2.4,1.9-4.2,4.2-4.2s4.2,1.9,4.2,4.2
		C60.9,1117.1,58.9,1119,56.6,1119z M56.6,1105.9c-2.4,0-4.2-1.9-4.2-4.2c0-2.4,1.9-4.2,4.2-4.2s4.2,1.9,4.2,4.2
		C60.9,1104,58.9,1105.9,56.6,1105.9z M56.6,1092.8c-2.4,0-4.2-1.9-4.2-4.2s1.9-4.2,4.2-4.2s4.2,1.9,4.2,4.2
		S58.9,1092.8,56.6,1092.8z M56.6,1079.7c-2.4,0-4.2-1.9-4.2-4.2s1.9-4.2,4.2-4.2s4.2,1.9,4.2,4.2
		C60.9,1077.7,58.9,1079.7,56.6,1079.7z M56.6,1066.6c-2.4,0-4.2-1.9-4.2-4.2c0-2.3,1.9-4.2,4.2-4.2s4.2,1.9,4.2,4.2
		C60.9,1064.6,58.9,1066.6,56.6,1066.6z M56.6,1053.5c-2.4,0-4.2-1.9-4.2-4.2s1.9-4.2,4.2-4.2s4.2,1.9,4.2,4.2
		C60.9,1051.6,58.9,1053.5,56.6,1053.5z M56.6,1040.4c-2.4,0-4.2-1.9-4.2-4.2c0-2.4,1.9-4.2,4.2-4.2s4.2,1.9,4.2,4.2
		C60.8,1038.5,58.9,1040.4,56.6,1040.4z M56.6,1027.3c-2.4,0-4.2-1.9-4.2-4.2c0-2.4,1.9-4.2,4.2-4.2s4.2,1.9,4.2,4.2
		C60.9,1025.4,58.9,1027.3,56.6,1027.3z M56.6,1014.2c-2.4,0-4.2-1.9-4.2-4.2c0-2.4,1.9-4.2,4.2-4.2s4.2,1.9,4.2,4.2
		S58.9,1014.2,56.6,1014.2z M60.9,988.5h0.7v0.7h-0.7V988.5z M61.7,1220.2H61v-0.7h0.7V1220.2z M63.2,1220.2h-0.7v-0.7h0.7V1220.2z
		 M63.2,989.3h-0.7v-0.7h0.7V989.3z M64,988.5h0.7v0.7H64V988.5z M64.8,1220.2h-0.7v-0.7h0.7V1220.2z M66.3,1220.2h-0.7v-0.7h0.7
		V1220.2z M67.8,1220.2H67v-0.7h0.7C67.8,1219.4,67.8,1220.2,67.8,1220.2z M69.3,1220.2h-0.7v-0.7h0.7V1220.2z M70.8,1220.2h-0.7
		v-0.7h0.7V1220.2z M72.4,1220.2h-0.7v-0.7h0.7V1220.2z M73.9,1220.2h-0.7v-0.7h0.7V1220.2z M69.7,1197.4c-2.4,0-4.2-1.9-4.2-4.2
		s1.9-4.2,4.2-4.2c2.4,0,4.2,1.9,4.2,4.2C73.9,1195.7,72,1197.4,69.7,1197.4z M69.7,1184.4c-2.4,0-4.2-1.9-4.2-4.2
		c0-2.4,1.9-4.2,4.2-4.2c2.4,0,4.2,1.9,4.2,4.2C74,1182.5,72,1184.4,69.7,1184.4z M69.7,1171.3c-2.4,0-4.2-1.9-4.2-4.2
		c0-2.4,1.9-4.2,4.2-4.2c2.4,0,4.2,1.9,4.2,4.2C74,1169.4,72,1171.3,69.7,1171.3z M69.7,1158.2c-2.4,0-4.2-1.9-4.2-4.2
		c0-2.4,1.9-4.2,4.2-4.2c2.4,0,4.2,1.9,4.2,4.2C74,1156.3,72,1158.2,69.7,1158.2z M69.7,1145.1c-2.4,0-4.2-1.9-4.2-4.2
		s1.9-4.2,4.2-4.2c2.4,0,4.2,1.9,4.2,4.2C73.9,1143.2,72,1145.1,69.7,1145.1z M69.7,1132c-2.4,0-4.2-1.9-4.2-4.2
		c0-2.3,1.9-4.2,4.2-4.2c2.4,0,4.2,1.9,4.2,4.2C73.9,1130.2,72,1132,69.7,1132z M69.7,1119c-2.4,0-4.2-1.9-4.2-4.2
		c0-2.4,1.9-4.2,4.2-4.2c2.4,0,4.2,1.9,4.2,4.2C74,1117.1,72,1119,69.7,1119z M69.7,1105.9c-2.4,0-4.2-1.9-4.2-4.2
		c0-2.4,1.9-4.2,4.2-4.2c2.4,0,4.2,1.9,4.2,4.2C74,1104,72,1105.9,69.7,1105.9z M69.7,1092.8c-2.4,0-4.2-1.9-4.2-4.2
		s1.9-4.2,4.2-4.2c2.4,0,4.2,1.9,4.2,4.2S72,1092.8,69.7,1092.8z M69.7,1079.7c-2.4,0-4.2-1.9-4.2-4.2s1.9-4.2,4.2-4.2
		c2.4,0,4.2,1.9,4.2,4.2C74,1077.7,72,1079.7,69.7,1079.7z M69.7,1066.6c-2.4,0-4.2-1.9-4.2-4.2c0-2.3,1.9-4.2,4.2-4.2
		c2.4,0,4.2,1.9,4.2,4.2C74,1064.6,72,1066.6,69.7,1066.6z M69.7,1053.5c-2.4,0-4.2-1.9-4.2-4.2s1.9-4.2,4.2-4.2
		c2.4,0,4.2,1.9,4.2,4.2C74,1051.6,72,1053.5,69.7,1053.5z M69.7,1040.4c-2.4,0-4.2-1.9-4.2-4.2c0-2.4,1.9-4.2,4.2-4.2
		c2.4,0,4.2,1.9,4.2,4.2C73.9,1038.5,72,1040.4,69.7,1040.4z M69.7,1027.3c-2.4,0-4.2-1.9-4.2-4.2c0-2.4,1.9-4.2,4.2-4.2
		c2.4,0,4.2,1.9,4.2,4.2C74,1025.4,72,1027.3,69.7,1027.3z M69.7,1014.2c-2.4,0-4.2-1.9-4.2-4.2c0-2.4,1.9-4.2,4.2-4.2
		c2.4,0,4.2,1.9,4.2,4.2C74,1012.3,72,1014.2,69.7,1014.2z M75.5,1220.2h-0.7v-0.7h0.7V1220.2z M75.5,989.3h-0.7v-0.7h0.7V989.3z
		 M76.9,1220.2h-0.7v-0.7h0.7V1220.2z M76.9,989.3h-0.7v-0.7h0.7V989.3z M77.7,988.5h0.7v0.7h-0.7V988.5z M78.5,1220.2h-0.7v-0.7
		h0.7V1220.2z M80,1220.2h-0.7v-0.7H80V1220.2z M81.6,1220.2h-0.7v-0.7h0.7V1220.2z M83.1,1220.2h-0.7v-0.7h0.7V1220.2z
		 M84.6,1220.2h-0.7v-0.7h0.7V1220.2z M86.1,1220.2h-0.7v-0.7h0.7V1220.2z M87.6,1220.2h-0.7v-0.7h0.7V1220.2z M87.6,989.3h-0.7
		v-0.7h0.7V989.3z M89.2,1220.2h-0.7v-0.7h0.7V1220.2z M89.2,989.3h-0.7v-0.7h0.7V989.3z M90.6,1220.2h-0.7v-0.7h0.7V1220.2z
		 M90.6,989.3h-0.7v-0.7h0.7V989.3z M91.5,988.5h0.7v0.7h-0.7V988.5z M92.2,1220.2h-0.7v-0.7h0.7V1220.2z M93.7,1220.2H93v-0.7h0.7
		V1220.2z M95.3,1220.2h-0.7v-0.7h0.7V1220.2z M96.8,1220.2H96v-0.7h0.7v0.7H96.8z M98.3,1220.2h-0.7v-0.7h0.7V1220.2z M99.8,1220.2
		h-0.7v-0.7h0.7V1220.2z M95.9,1197.4c-2.4,0-4.2-1.9-4.2-4.2s1.9-4.2,4.2-4.2c2.4,0,4.2,1.9,4.2,4.2
		C100.1,1195.7,98.2,1197.4,95.9,1197.4z M95.9,1184.4c-2.4,0-4.2-1.9-4.2-4.2c0-2.4,1.9-4.2,4.2-4.2c2.4,0,4.2,1.9,4.2,4.2
		S98.2,1184.4,95.9,1184.4z M95.9,1171.3c-2.4,0-4.2-1.9-4.2-4.2c0-2.4,1.9-4.2,4.2-4.2c2.4,0,4.2,1.9,4.2,4.2
		S98.2,1171.3,95.9,1171.3z M95.9,1158.2c-2.4,0-4.2-1.9-4.2-4.2c0-2.4,1.9-4.2,4.2-4.2c2.4,0,4.2,1.9,4.2,4.2
		C100.1,1156.3,98.2,1158.2,95.9,1158.2z M95.9,1145.1c-2.4,0-4.2-1.9-4.2-4.2s1.9-4.2,4.2-4.2c2.4,0,4.2,1.9,4.2,4.2
		S98.2,1145.1,95.9,1145.1z M95.9,1132c-2.4,0-4.2-1.9-4.2-4.2c0-2.3,1.9-4.2,4.2-4.2c2.4,0,4.2,1.9,4.2,4.2
		C100.1,1130.2,98.2,1132,95.9,1132z M95.9,1119c-2.4,0-4.2-1.9-4.2-4.2c0-2.4,1.9-4.2,4.2-4.2c2.4,0,4.2,1.9,4.2,4.2
		S98.2,1119,95.9,1119z M95.9,1105.9c-2.4,0-4.2-1.9-4.2-4.2c0-2.4,1.9-4.2,4.2-4.2c2.4,0,4.2,1.9,4.2,4.2
		C100.1,1104,98.2,1105.9,95.9,1105.9z M95.9,1092.8c-2.4,0-4.2-1.9-4.2-4.2s1.9-4.2,4.2-4.2c2.4,0,4.2,1.9,4.2,4.2
		S98.2,1092.8,95.9,1092.8z M95.9,1079.7c-2.4,0-4.2-1.9-4.2-4.2s1.9-4.2,4.2-4.2c2.4,0,4.2,1.9,4.2,4.2
		C100.1,1077.7,98.2,1079.7,95.9,1079.7z M95.9,1066.6c-2.4,0-4.2-1.9-4.2-4.2c0-2.3,1.9-4.2,4.2-4.2c2.4,0,4.2,1.9,4.2,4.2
		C100.1,1064.6,98.2,1066.6,95.9,1066.6z M95.9,1053.5c-2.4,0-4.2-1.9-4.2-4.2s1.9-4.2,4.2-4.2c2.4,0,4.2,1.9,4.2,4.2
		S98.2,1053.5,95.9,1053.5z M95.9,1040.4c-2.4,0-4.2-1.9-4.2-4.2c0-2.4,1.9-4.2,4.2-4.2c2.4,0,4.2,1.9,4.2,4.2
		C100.1,1038.5,98.2,1040.4,95.9,1040.4z M95.9,1027.3c-2.4,0-4.2-1.9-4.2-4.2c0-2.4,1.9-4.2,4.2-4.2c2.4,0,4.2,1.9,4.2,4.2
		S98.2,1027.3,95.9,1027.3z M95.9,1014.2c-2.4,0-4.2-1.9-4.2-4.2c0-2.4,1.9-4.2,4.2-4.2c2.4,0,4.2,1.9,4.2,4.2
		C100.1,1012.3,98.2,1014.2,95.9,1014.2z M100.6,988.5h0.7v0.7h-0.7V988.5z M101.4,1220.2h-0.7v-0.7h0.7V1220.2z M102.9,1220.2h-0.7
		v-0.7h0.7V1220.2z M102.9,989.3h-0.7v-0.7h0.7V989.3z M104.4,1220.2h-0.7v-0.7h0.7V1220.2z M104.4,989.3h-0.7v-0.7h0.7V989.3z
		 M109,1175.9c2.4,0,4.2,1.9,4.2,4.2c0,2.4-1.9,4.2-4.2,4.2c-2.4,0-4.2-1.9-4.2-4.2C104.7,1177.8,106.6,1175.9,109,1175.9z
		 M105.9,1220.2h-0.7v-0.7h0.7V1220.2z M107.4,1220.2h-0.7v-0.7h0.7V1220.2z M109,1220.2h-0.7v-0.7h0.7V1220.2z M104.7,1193.3
		c0-2.4,1.9-4.2,4.2-4.2c2.4,0,4.2,1.9,4.2,4.2c0,2.3-1.9,4.2-4.2,4.2S104.7,1195.7,104.7,1193.3z M110.5,1220.2h-0.7v-0.7h0.7
		V1220.2z M112,1220.2h-0.7v-0.7h0.7V1220.2z M113.5,1220.2h-0.7v-0.7h0.7V1220.2z M113.5,989.3h-0.7v-0.7h0.7V989.3z M115.1,1220.2
		h-0.7v-0.7h0.7V1220.2z M115.1,989.3h-0.7v-0.7h0.7V989.3z M116.6,1220.2h-0.7v-0.7h0.7V1220.2z M116.6,989.3h-0.7v-0.7h0.7V989.3z
		 M118.1,1220.2h-0.7v-0.7h0.7V1220.2z M118.1,989.3h-0.7v-0.7h0.7V989.3z M119.6,1220.2h-0.7v-0.7h0.7V1220.2z M119.6,989.3h-0.7
		v-0.7h0.7V989.3z M121.2,1220.2h-0.7v-0.7h0.7V1220.2z M121.2,989.3h-0.7v-0.7h0.7V989.3z M122.7,1220.2H122v-0.7h0.7V1220.2z
		 M122.7,989.3H122v-0.7h0.7V989.3z M124.2,1220.2h-0.7v-0.7h0.7V1220.2z M124.2,989.3h-0.7v-0.7h0.7V989.3z M125.7,1220.2H125v-0.7
		h0.7V1220.2z M125.7,989.3H125v-0.7h0.7V989.3z M127.2,1220.2h-0.7v-0.7h0.7V1220.2z M127.2,989.3h-0.7v-0.7h0.7V989.3z
		 M128.8,1220.2H128v-0.7h0.7v0.7H128.8z M128.8,989.3H128v-0.7h0.7v0.7H128.8z M130.3,1220.2h-0.7v-0.7h0.7V1220.2z M130.3,989.3
		h-0.7v-0.7h0.7V989.3z M131.8,1220.2h-0.7v-0.7h0.7V1220.2z M131.8,989.3h-0.7v-0.7h0.7V989.3z M133.3,1220.2h-0.7v-0.7h0.7V1220.2
		z M133.3,989.3h-0.7v-0.7h0.7V989.3z M134.9,1220.2h-0.7v-0.7h0.7V1220.2z M134.9,989.3h-0.7v-0.7h0.7V989.3z M136.4,1220.2h-0.7
		v-0.7h0.7V1220.2z M136.4,989.3h-0.7v-0.7h0.7V989.3z M137.9,1220.2h-0.7v-0.7h0.7V1220.2z M137.9,989.3h-0.7v-0.7h0.7V989.3z
		 M139.4,1220.2h-0.7v-0.7h0.7V1220.2z M139.4,989.3h-0.7v-0.7h0.7V989.3z M140.2,988.5h0.7v0.7h-0.7V988.5z M141,1220.2h-0.7v-0.7
		h0.7V1220.2z M141.4,1200.7c-0.2,0-0.4-0.1-0.4-0.4v-0.7c0-0.2,0.1-0.4,0.4-0.4c-0.2,0-0.4-0.1-0.4-0.4v-0.7c0-0.2,0.1-0.4,0.4-0.4
		c-0.2,0-0.4-0.1-0.4-0.4v-0.7c0-0.2,0.1-0.4,0.4-0.4c-0.2,0-0.4-0.1-0.4-0.4v-0.7c0-0.2,0.1-0.4,0.4-0.4c-0.2,0-0.4-0.1-0.4-0.4
		v-0.7c0-0.2,0.1-0.4,0.4-0.4c-0.2,0-0.4-0.1-0.4-0.4v-0.7c0-0.2,0.1-0.4,0.4-0.4c-0.2,0-0.4-0.1-0.4-0.4v-0.7
		c0-0.2,0.1-0.4,0.4-0.4c-0.2,0-0.4-0.1-0.4-0.4v-0.7c0-0.2,0.1-0.4,0.4-0.4c-0.2,0-0.4-0.1-0.4-0.4v-0.7c0-0.2,0.1-0.4,0.4-0.4
		c-0.2,0-0.4-0.1-0.4-0.4v-0.7c0-0.2,0.1-0.4,0.4-0.4c-0.2,0-0.4-0.1-0.4-0.4v-0.7c0-0.2,0.1-0.4,0.4-0.4c-0.2,0-0.4-0.1-0.4-0.4
		v-0.7c0-0.2,0.1-0.4,0.4-0.4c-0.2,0-0.4-0.1-0.4-0.4v-0.7c0-0.2,0.1-0.4,0.4-0.4c-0.2,0-0.4-0.1-0.4-0.4v-0.7
		c0-0.2,0.1-0.4,0.4-0.4c-0.2,0-0.4-0.1-0.4-0.4v-0.7c0-0.2,0.1-0.4,0.4-0.4c-0.2,0-0.4-0.1-0.4-0.4v-0.7c0-0.2,0.1-0.4,0.4-0.4
		c-0.2,0-0.4-0.1-0.4-0.4v-0.7c0-0.2,0.1-0.4,0.4-0.4c-0.2,0-0.4-0.1-0.4-0.4v-0.7c0-0.2,0.1-0.4,0.4-0.4c-0.2,0-0.4-0.1-0.4-0.4
		v-0.7c0-0.2,0.1-0.4,0.4-0.4c-0.2,0-0.4-0.1-0.4-0.4v-0.7c0-0.2,0.1-0.4,0.4-0.4c-0.2,0-0.4-0.1-0.4-0.4v-0.7
		c0-0.2,0.1-0.4,0.4-0.4c-0.2,0-0.4-0.1-0.4-0.4v-0.7c0-0.2,0.1-0.4,0.4-0.4c-0.2,0-0.4-0.1-0.4-0.4v-0.7c0-0.2,0.1-0.4,0.4-0.4
		c-0.2,0-0.4-0.1-0.4-0.4v-0.7c0-0.2,0.1-0.4,0.4-0.4c-0.2,0-0.4-0.1-0.4-0.4v-0.7c0-0.2,0.1-0.4,0.4-0.4c-0.2,0-0.4-0.1-0.4-0.4
		v-0.7c0-0.2,0.1-0.4,0.4-0.4c-0.2,0-0.4-0.1-0.4-0.4v-0.7c0-0.2,0.1-0.4,0.4-0.4c-0.2,0-0.4-0.1-0.4-0.4v-0.7
		c0-0.2,0.1-0.4,0.4-0.4c-0.2,0-0.4-0.1-0.4-0.4v-0.7c0-0.2,0.1-0.4,0.4-0.4c-0.2,0-0.4-0.1-0.4-0.4v-0.7c0-0.2,0.1-0.4,0.4-0.4
		c-0.2,0-0.4-0.1-0.4-0.4v-0.7c0-0.2,0.1-0.4,0.4-0.4c-0.2,0-0.4-0.1-0.4-0.4v-0.7c0-0.2,0.1-0.4,0.4-0.4c-0.2,0-0.4-0.1-0.4-0.4
		v-0.7c0-0.2,0.1-0.4,0.4-0.4c-0.2,0-0.4-0.1-0.4-0.4v-0.7c0-0.2,0.1-0.4,0.4-0.4c-0.2,0-0.4-0.1-0.4-0.4v-0.7
		c0-0.2,0.1-0.4,0.4-0.4c-0.2,0-0.4-0.1-0.4-0.4v-0.7c0-0.2,0.1-0.4,0.4-0.4c-0.2,0-0.4-0.1-0.4-0.4v-0.7c0-0.2,0.1-0.4,0.4-0.4
		c-0.2,0-0.4-0.1-0.4-0.4v-0.7c0-0.2,0.1-0.4,0.4-0.4c-0.2,0-0.4-0.1-0.4-0.4v-0.7c0-0.2,0.1-0.4,0.4-0.4c-0.2,0-0.4-0.1-0.4-0.4
		v-0.7c0-0.2,0.1-0.4,0.4-0.4c-0.2,0-0.4-0.1-0.4-0.4v-0.7c0-0.2,0.1-0.4,0.4-0.4c-0.2,0-0.4-0.1-0.4-0.4v-0.7
		c0-0.2,0.1-0.4,0.4-0.4c-0.2,0-0.4-0.1-0.4-0.4v-0.7c0-0.2,0.1-0.4,0.4-0.4c-0.2,0-0.4-0.1-0.4-0.4v-0.7c0-0.2,0.1-0.4,0.4-0.4
		c-0.2,0-0.4-0.1-0.4-0.4v-0.2c0-0.2,0.1-0.4,0.4-0.4c-0.2,0-0.4-0.1-0.4-0.4v-0.7c0-0.2,0.1-0.4,0.4-0.4c-0.2,0-0.4-0.1-0.4-0.4
		v-0.7c0-0.2,0.1-0.4,0.4-0.4c-0.2,0-0.4-0.1-0.4-0.4v-0.7c0-0.2,0.1-0.4,0.4-0.4c-0.2,0-0.4-0.1-0.4-0.4v-0.7
		c0-0.2,0.1-0.4,0.4-0.4c-0.2,0-0.4-0.1-0.4-0.4v-0.7c0-0.2,0.1-0.4,0.4-0.4c-0.2,0-0.4-0.1-0.4-0.4v-0.7c0-0.2,0.1-0.4,0.4-0.4
		c-0.2,0-0.4-0.1-0.4-0.4v-0.7c0-0.2,0.1-0.4,0.4-0.4c-0.2,0-0.4-0.1-0.4-0.4v-0.7c0-0.2,0.1-0.4,0.4-0.4c-0.2,0-0.4-0.1-0.4-0.4
		v-0.7c0-0.2,0.1-0.4,0.4-0.4c-0.2,0-0.4-0.1-0.4-0.4v-0.7c0-0.2,0.1-0.4,0.4-0.4c-0.2,0-0.4-0.1-0.4-0.4v-0.7
		c0-0.2,0.1-0.4,0.4-0.4c-0.2,0-0.4-0.1-0.4-0.4v-0.7c0-0.2,0.1-0.4,0.4-0.4c-0.2,0-0.4-0.1-0.4-0.4v-0.7c0-0.2,0.1-0.4,0.4-0.4
		c-0.2,0-0.4-0.1-0.4-0.4v-0.7c0-0.2,0.1-0.4,0.4-0.4c-0.2,0-0.4-0.1-0.4-0.4v-0.7c0-0.2,0.1-0.4,0.4-0.4c-0.2,0-0.4-0.1-0.4-0.4
		v-0.7c0-0.2,0.1-0.4,0.4-0.4c0.2,0,0.4,0.1,0.4,0.4v0.7c0,0.2-0.1,0.4-0.4,0.4c0.2,0,0.4,0.1,0.4,0.4v0.7c0,0.2-0.1,0.4-0.4,0.4
		c0.2,0,0.4,0.1,0.4,0.4v0.7c0,0.2-0.1,0.4-0.4,0.4c0.2,0,0.4,0.1,0.4,0.4v0.7c0,0.2-0.1,0.4-0.4,0.4c0.2,0,0.4,0.1,0.4,0.4v0.7
		c0,0.2-0.1,0.4-0.4,0.4c0.2,0,0.4,0.1,0.4,0.4v0.7c0,0.2-0.1,0.4-0.4,0.4c0.2,0,0.4,0.1,0.4,0.4v0.7c0,0.2-0.1,0.4-0.4,0.4
		c0.2,0,0.4,0.1,0.4,0.4v0.7c0,0.2-0.1,0.4-0.4,0.4c0.2,0,0.4,0.1,0.4,0.4v0.7c0,0.2-0.1,0.4-0.4,0.4c0.2,0,0.4,0.1,0.4,0.4v0.7
		c0,0.2-0.1,0.4-0.4,0.4c0.2,0,0.4,0.1,0.4,0.4v0.7c0,0.2-0.1,0.4-0.4,0.4c0.2,0,0.4,0.1,0.4,0.4v0.7c0,0.2-0.1,0.4-0.4,0.4
		c0.2,0,0.4,0.1,0.4,0.4v0.7c0,0.2-0.1,0.4-0.4,0.4c0.2,0,0.4,0.1,0.4,0.4v0.7c0,0.2-0.1,0.4-0.4,0.4c0.2,0,0.4,0.1,0.4,0.4v0.7
		c0,0.2-0.1,0.4-0.4,0.4c0.2,0,0.4,0.1,0.4,0.4v0.7c0,0.2-0.1,0.4-0.4,0.4c0.2,0,0.4,0.1,0.4,0.4v0.7c0,0.2-0.1,0.4-0.4,0.4
		c0.2,0,0.4,0.1,0.4,0.4v0.7c0,0.2-0.1,0.4-0.4,0.4c0.2,0,0.4,0.1,0.4,0.4v0.7c0,0.2-0.1,0.4-0.4,0.4c0.2,0,0.4,0.1,0.4,0.4v0.7
		c0,0.2-0.1,0.4-0.4,0.4c0.2,0,0.4,0.1,0.4,0.4v0.7c0,0.2-0.1,0.4-0.4,0.4c0.2,0,0.4,0.1,0.4,0.4v0.7c0,0.2-0.1,0.4-0.4,0.4
		c0.2,0,0.4,0.1,0.4,0.4v0.7c0,0.2-0.1,0.4-0.4,0.4c0.2,0,0.4,0.1,0.4,0.4v0.7c0,0.2-0.1,0.4-0.4,0.4c0.2,0,0.4,0.1,0.4,0.4v0.7
		c0,0.2-0.1,0.4-0.4,0.4c0.2,0,0.4,0.1,0.4,0.4v0.7c0,0.2-0.1,0.4-0.4,0.4c0.2,0,0.4,0.1,0.4,0.4v0.7c0,0.2-0.1,0.4-0.4,0.4
		c0.2,0,0.4,0.1,0.4,0.4v0.7c0,0.2-0.1,0.4-0.4,0.4c0.2,0,0.4,0.1,0.4,0.4v0.7c0,0.2-0.1,0.4-0.4,0.4c0.2,0,0.4,0.1,0.4,0.4v0.7
		c0,0.2-0.1,0.4-0.4,0.4c0.2,0,0.4,0.1,0.4,0.4v0.7c0,0.2-0.1,0.4-0.4,0.4c0.2,0,0.4,0.1,0.4,0.4v0.7c0,0.2-0.1,0.4-0.4,0.4
		c0.2,0,0.4,0.1,0.4,0.4v0.7c0,0.2-0.1,0.4-0.4,0.4c0.2,0,0.4,0.1,0.4,0.4v0.7c0,0.2-0.1,0.4-0.4,0.4c0.2,0,0.4,0.1,0.4,0.4v0.7
		c0,0.2-0.1,0.4-0.4,0.4c0.2,0,0.4,0.1,0.4,0.4v0.7c0,0.2-0.1,0.4-0.4,0.4c0.2,0,0.4,0.1,0.4,0.4v0.7c0,0.2-0.1,0.4-0.4,0.4
		c0.2,0,0.4,0.1,0.4,0.4v0.7c0,0.2-0.1,0.4-0.4,0.4c0.2,0,0.4,0.1,0.4,0.4v0.7c0,0.2-0.1,0.4-0.4,0.4c0.2,0,0.4,0.1,0.4,0.4v0.7
		c0,0.2-0.1,0.4-0.4,0.4c0.2,0,0.4,0.1,0.4,0.4v0.7c0,0.2-0.1,0.4-0.4,0.4c0.2,0,0.4,0.1,0.4,0.4v0.7c0,0.2-0.1,0.4-0.4,0.4
		c0.2,0,0.4,0.1,0.4,0.4v0.7c0,0.2-0.1,0.4-0.4,0.4c0.2,0,0.4,0.1,0.4,0.4v0.7c0,0.2-0.1,0.4-0.4,0.4c0.2,0,0.4,0.1,0.4,0.4v0.7
		c0,0.2-0.1,0.4-0.4,0.4c0.2,0,0.4,0.1,0.4,0.4v0.7c0,0.2-0.1,0.4-0.4,0.4c0.2,0,0.4,0.1,0.4,0.4v0.7c0,0.2-0.1,0.4-0.4,0.4
		c0.2,0,0.4,0.1,0.4,0.4v0.7c0,0.2-0.1,0.4-0.4,0.4c0.2,0,0.4,0.1,0.4,0.4v0.7c0,0.2-0.1,0.4-0.4,0.4c0.2,0,0.4,0.1,0.4,0.4v0.7
		c0,0.2-0.1,0.4-0.4,0.4c0.2,0,0.4,0.1,0.4,0.4v0.7c0,0.2-0.1,0.4-0.4,0.4c0.2,0,0.4,0.1,0.4,0.4v0.7c0,0.2-0.1,0.4-0.4,0.4
		c0.2,0,0.4,0.1,0.4,0.4v0.7c0,0.2-0.1,0.4-0.4,0.4c0.2,0,0.4,0.1,0.4,0.4v0.7c0,0.2-0.1,0.4-0.4,0.4c0.2,0,0.4,0.1,0.4,0.4v0.7
		c0,0.2-0.1,0.4-0.4,0.4c0.2,0,0.4,0.1,0.4,0.4v0.7c0,0.2-0.1,0.4-0.4,0.4c0.2,0,0.4,0.1,0.4,0.4v0.7c0,0.2-0.1,0.4-0.4,0.4
		c0.2,0,0.4,0.1,0.4,0.4v0.7c0,0.2-0.1,0.4-0.4,0.4c0.2,0,0.4,0.1,0.4,0.4v0.7c0,0.2-0.1,0.4-0.4,0.4c0.2,0,0.4,0.1,0.4,0.4v0.7
		c0,0.2-0.1,0.4-0.4,0.4c0.2,0,0.4,0.1,0.4,0.4v0.7C141.7,1200.6,141.6,1200.7,141.4,1200.7z M142.5,1220.2h-0.7v-0.7h0.7V1220.2z
		 M142.5,989.3h-0.7v-0.7h0.7V989.3z M144.1,1220.2h-0.7v-0.7h0.7V1220.2z M144.1,989.3h-0.7v-0.7h0.7V989.3z M145.5,1220.2h-0.7
		v-0.7h0.7V1220.2z M145.5,989.3h-0.7v-0.7h0.7V989.3z M147,1220.2h-0.7v-0.7h0.7V1220.2z M147,989.3h-0.7v-0.7h0.7V989.3z
		 M148.6,1220.2h-0.7v-0.7h0.7V1220.2z M148.6,989.3h-0.7v-0.7h0.7V989.3z M150.1,1220.2h-0.7v-0.7h0.7V1220.2z M150.1,989.3h-0.7
		v-0.7h0.7V989.3z M151.7,1220.2H151v-0.7h0.7V1220.2z M151.7,989.3H151v-0.7h0.7V989.3z M153.1,1220.2h-0.7v-0.7h0.7V1220.2z
		 M153.1,989.3h-0.7v-0.7h0.7V989.3z M154.7,1220.2H154v-0.7h0.7V1220.2z M154.7,989.3H154v-0.7h0.7V989.3z M156.2,1220.2h-0.7v-0.7
		h0.7V1220.2z M156.2,989.3h-0.7v-0.7h0.7V989.3z M157.8,1220.2H157v-0.7h0.7v0.7H157.8z M157.8,989.3H157v-0.7h0.7v0.7H157.8z
		 M159.2,1220.2h-0.7v-0.7h0.7V1220.2z M159.2,989.3h-0.7v-0.7h0.7V989.3z M255.3,988.5h0.7v0.7h-0.7V988.5z M253.8,988.5h0.7v0.7
		h-0.7V988.5z M252.2,988.5h0.7v0.7h-0.7V988.5z M250.7,988.5h0.7v0.7h-0.7V988.5z M249.2,988.5h0.7v0.7h-0.7V988.5z M247.7,988.5
		h0.7v0.7h-0.7V988.5z M246.1,988.5h0.7v0.7h-0.7V988.5z M244.6,988.5h0.7v0.7h-0.7V988.5z M243,988.5h0.7v0.7H243V988.5z
		 M241.6,988.5h0.7v0.7h-0.7V988.5z M240.1,988.5h0.7v0.7h-0.7V988.5z M238.5,988.5h0.7v0.7h-0.7V988.5z M237,988.5h0.7v0.7H237
		V988.5z M235.4,988.5h0.7v0.7h-0.7V988.5z M230.9,988.5h0.7v0.7h-0.7V988.5z M229.3,988.5h0.7v0.7h-0.7V988.5z M187.5,957.5
		c2.5,0,4.5,2.1,4.5,4.5s-2.1,4.5-4.5,4.5c-2.5,0-4.5-2-4.5-4.5C183,959.5,185,957.5,187.5,957.5z M186.7,988.5v0.7H186v-0.7H186.7z
		 M185.2,988.5v0.7h-0.7v-0.7H185.2z M182.9,988.5h0.7v0.7h-0.7V988.5z M160.8,1220.2h-0.7v-0.7h0.7V1220.2z M160.8,989.3h-0.7v-0.7
		h0.7V989.3z M162.3,1220.2h-0.7v-0.7h0.7V1220.2z M162.3,989.3h-0.7v-0.7h0.7V989.3z M163.8,1220.2H163v-0.7h0.7L163.8,1220.2
		L163.8,1220.2z M163.8,989.3H163v-0.7h0.7L163.8,989.3L163.8,989.3z M165.4,1220.2h-0.7v-0.7h0.7V1220.2z M165.4,989.3h-0.7v-0.7
		h0.7V989.3z M166.8,1220.2h-0.7v-0.7h0.7V1220.2z M166.8,989.3h-0.7v-0.7h0.7V989.3z M168.4,1220.2h-0.7v-0.7h0.7V1220.2z
		 M168.4,989.3h-0.7v-0.7h0.7V989.3z M169.9,1220.2h-0.7v-0.7h0.7V1220.2z M169.9,989.3h-0.7v-0.7h0.7V989.3z M171.5,1220.2h-0.7
		v-0.7h0.7V1220.2z M171.5,989.3h-0.7v-0.7h0.7V989.3z M173,1220.2h-0.7v-0.7h0.7V1220.2z M173,989.3h-0.7v-0.7h0.7V989.3z
		 M174.5,1220.2h-0.7v-0.7h0.7V1220.2z M174.5,989.3h-0.7v-0.7h0.7V989.3z M176,1220.2h-0.7v-0.7h0.7V1220.2z M176,989.3h-0.7v-0.7
		h0.7V989.3z M177.6,1220.2h-0.7v-0.7h0.7V1220.2z M177.6,989.3h-0.7v-0.7h0.7V989.3z M179.1,1220.2h-0.7v-0.7h0.7V1220.2z
		 M179.1,989.3h-0.7v-0.7h0.7V989.3z M180.6,1220.2h-0.7v-0.7h0.7V1220.2z M180.6,989.3h-0.7v-0.7h0.7V989.3z M182.1,1220.2h-0.7
		v-0.7h0.7V1220.2z M182.1,989.3h-0.7v-0.7h0.7V989.3z M183.6,1220.2h-0.7v-0.7h0.7V1220.2z M185.2,1220.2h-0.7v-0.7h0.7V1220.2z
		 M186.7,1220.2H186v-0.7h0.7V1220.2z M188.2,1220.2h-0.7v-0.7h0.7V1220.2z M189.7,1220.2H189v-0.7h0.7V1220.2z M191.3,1220.2h-0.7
		v-0.7h0.7V1220.2z M192.8,1220.2H192v-0.7h0.7v0.7H192.8z M194.3,1220.2h-0.7v-0.7h0.7V1220.2z M195.8,1220.2h-0.7v-0.7h0.7V1220.2
		z M197.4,1220.2h-0.7v-0.7h0.7V1220.2z M198.9,1220.2h-0.7v-0.7h0.7V1220.2z M200.4,1220.2h-0.7v-0.7h0.7V1220.2z M201.9,1220.2
		h-0.7v-0.7h0.7V1220.2z M203.4,1220.2h-0.7v-0.7h0.7V1220.2z M205,1220.2h-0.7v-0.7h0.7V1220.2z M206.5,1220.2h-0.7v-0.7h0.7
		V1220.2z M208,1220.2h-0.7v-0.7h0.7V1220.2z M209.5,1220.2h-0.7v-0.7h0.7V1220.2z M211.1,1220.2h-0.7v-0.7h0.7V1220.2z
		 M212.6,1220.2h-0.7v-0.7h0.7V1220.2z M214.1,1220.2h-0.7v-0.7h0.7V1220.2z M215.6,1220.2h-0.7v-0.7h0.7V1220.2z M217.2,1220.2
		h-0.7v-0.7h0.7V1220.2z M218.7,1220.2H218v-0.7h0.7V1220.2z M220.3,1220.2h-0.7v-0.7h0.7V1220.2z M221.7,1220.2H221v-0.7h0.7
		V1220.2z M223.2,1220.2h-0.7v-0.7h0.7V1220.2z M224.8,1220.2H224v-0.7h0.7L224.8,1220.2L224.8,1220.2z M226.3,1220.2h-0.7v-0.7h0.7
		V1220.2z M227.8,1220.2h-0.7v-0.7h0.7V1220.2z M229.3,1220.2h-0.7v-0.7h0.7V1220.2z M285,1219.4h0.7v0.7H285V1219.4z M283.5,1219.4
		h0.7v0.7h-0.7V1219.4z M281.9,1219.4h0.7v0.7h-0.7V1219.4z M280.4,1219.4h0.7v0.7h-0.7V1219.4z M278.9,1219.4h0.7v0.7h-0.7V1219.4z
		 M277.4,1219.4h0.7v0.7h-0.7V1219.4z M275.8,1219.4h0.7v0.7h-0.7V1219.4z M274.3,1219.4h0.7v0.7h-0.7V1219.4z M272.8,1219.4h0.7
		v0.7h-0.7V1219.4z M271.3,1219.4h0.7v0.7h-0.7V1219.4z M269.7,1219.4h0.7v0.7h-0.7V1219.4z M268.2,1219.4h0.7v0.7h-0.7V1219.4z
		 M266.7,1219.4h0.7v0.7h-0.7V1219.4z M265.2,1219.4h0.7v0.7h-0.7V1219.4z M263.7,1219.4h0.7v0.7h-0.7V1219.4z M262.1,1219.4h0.7
		v0.7h-0.7V1219.4z M260.6,1219.4h0.7v0.7h-0.7V1219.4z M259.1,1219.4h0.7v0.7h-0.7V1219.4z M257.6,1219.4h0.7v0.7h-0.7V1219.4z
		 M256,1219.4h0.7v0.7H256V1219.4z M254.5,1219.4h0.7v0.7h-0.7V1219.4z M252.9,1219.4h0.7v0.7h-0.7V1219.4z M251.5,1219.4h0.7v0.7
		h-0.7V1219.4z M249.9,1219.4h0.7v0.7h-0.7V1219.4z M248.4,1219.4h0.7v0.7h-0.7V1219.4z M246.9,1219.4h0.7v0.7h-0.7V1219.4z
		 M245.4,1219.4h0.7v0.7h-0.7V1219.4z M243.9,1219.4h0.7v0.7h-0.7V1219.4z M242.3,1219.4h0.7v0.7h-0.7V1219.4z M240.8,1219.4h0.7
		v0.7h-0.7V1219.4z M239.2,1219.4h0.7v0.7h-0.7V1219.4z M237.8,1219.4h0.7v0.7h-0.7V1219.4z M236.2,1219.4h0.7v0.7h-0.7V1219.4z
		 M234.7,1219.4h0.7v0.7h-0.7V1219.4z M233.1,1219.4h0.7v0.7h-0.7V1219.4z M231.6,1219.4h0.7v0.7h-0.7V1219.4z M230.9,1219.4v0.7
		h-0.7v-0.7H230.9z M207.4,1026.9c-13.3,0-24.1-10.8-24.1-24.1c0-3.1,0.6-6.2,1.8-9c0-0.1,0-0.1,0-0.1c0.1-0.2,11.2-25.7,14.1-30.7
		c2.9-5.3,5.4-6.5,10.3-5.2c5.5,1.4,5.6,7.2,5.6,7.3l-0.1,14.6c5.6,1.8,10,5.1,13,9.5v-0.6h0.7v0.7H228c2.5,3.8,3.9,8.4,3.8,13.5
		C231.4,1016.3,220.8,1026.9,207.4,1026.9z M233.1,989.3h-0.7v-0.7h0.7V989.3z M234.7,989.3H234v-0.7h0.7V989.3z M246.1,1016
		c-6.3,0-11.2-5.1-11.2-11.2c0-6.3,5.1-11.2,11.2-11.2c6.3,0,11.2,5.1,11.2,11.2C257.4,1010.9,252.3,1016,246.1,1016z M257.6,989.3
		h-0.7v-0.7h0.7V989.3z M259.1,989.3h-0.7v-0.7h0.7V989.3z M260.6,989.3h-0.7v-0.7h0.7V989.3z M262.1,989.3h-0.7v-0.7h0.7V989.3z
		 M263.7,989.3H263v-0.7h0.7V989.3z M265.2,989.3h-0.7v-0.7h0.7V989.3z M266.7,989.3H266v-0.7h0.7V989.3z M268.2,989.3h-0.7v-0.7
		h0.7V989.3z M269.7,989.3H269v-0.7h0.7V989.3z M271.3,989.3h-0.7v-0.7h0.7V989.3z M272.8,989.3H272v-0.7h0.7L272.8,989.3
		L272.8,989.3z M274.3,989.3h-0.7v-0.7h0.7V989.3z M275.8,989.3h-0.7v-0.7h0.7V989.3z M277.4,989.3h-0.7v-0.7h0.7V989.3z
		 M278.9,989.3h-0.7v-0.7h0.7V989.3z M280.4,989.3h-0.7v-0.7h0.7V989.3z M281.9,989.3h-0.7v-0.7h0.7V989.3z M283.5,989.3h-0.7v-0.7
		h0.7V989.3z M285,989.3h-0.7v-0.7h0.7V989.3z M286.5,989.3h-0.7v-0.7h0.7V989.3z M288,989.3h-0.7v-0.7h0.7V989.3z M289.5,989.3
		h-0.7v-0.7h0.7V989.3z M291.1,989.3h-0.7v-0.7h0.7V989.3z M292.6,989.3h-0.7v-0.7h0.7V989.3z M294.1,989.3h-0.7v-0.7h0.7V989.3z
		 M295.6,989.3h-0.7v-0.7h0.7V989.3z M297.2,989.3h-0.7v-0.7h0.7V989.3z M298.7,989.3H298v-0.7h0.7V989.3z M300.2,989.3h-0.7v-0.7
		h0.7V989.3z M301.7,989.3H301v-0.7h0.7V989.3z M303.3,989.3h-0.7v-0.7h0.7V989.3z M304.8,989.3H304v-0.7h0.7L304.8,989.3
		L304.8,989.3z M306.4,989.3h-0.7v-0.7h0.7V989.3z M307.8,989.3h-0.7v-0.7h0.7V989.3z M309.3,989.3h-0.7v-0.7h0.7V989.3z
		 M310.9,989.3h-0.7v-0.7h0.7V989.3z M312.4,989.3h-0.7v-0.7h0.7V989.3z M314,989.3h-0.7v-0.7h0.7V989.3z M315.4,989.3h-0.7v-0.7
		h0.7V989.3z M317,989.3h-0.7v-0.7h0.7V989.3z M318.5,989.3h-0.7v-0.7h0.7V989.3z M320.1,989.3h-0.7v-0.7h0.7V989.3z M321.5,989.3
		h-0.7v-0.7h0.7V989.3z M323.1,989.3h-0.7v-0.7h0.7V989.3z M324.6,989.3h-0.7v-0.7h0.7V989.3z M326.2,989.3h-0.7v-0.7h0.7V989.3z
		 M327.7,989.3H327v-0.7h0.7V989.3z M329.1,989.3h-0.7v-0.7h0.7V989.3z M330.7,989.3H330v-0.7h0.7V989.3z M332.2,989.3h-0.7v-0.7
		h0.7V989.3z M333.8,989.3H333v-0.7h0.7L333.8,989.3L333.8,989.3z M335.3,989.3h-0.7v-0.7h0.7V989.3z M336.8,989.3h-0.7v-0.7h0.7
		V989.3z M338.3,989.3h-0.7v-0.7h0.7V989.3z M339.9,989.3h-0.7v-0.7h0.7V989.3z M341.2,970.9h-64.3c-2.7,0-4.8-2.2-4.8-4.8v-20.9
		c0-2.7,2.2-4.8,4.8-4.8h64.2c2.7,0,4.8,2.2,4.8,4.8v20.9h0.1C346,968.9,343.8,970.9,341.2,970.9z M429.8,1220.2H429v-0.7h0.7
		L429.8,1220.2L429.8,1220.2z M431.3,1220.2h-0.7v-0.7h0.7V1220.2z M432.8,1220.2h-0.7v-0.7h0.7V1220.2z M434.3,1220.2h-0.7v-0.7
		h0.7V1220.2z M435.9,1220.2h-0.7v-0.7h0.7V1220.2z M437.4,1220.2h-0.7v-0.7h0.7V1220.2z M438.9,1220.2h-0.7v-0.7h0.7V1220.2z
		 M440.4,1220.2h-0.7v-0.7h0.7V1220.2z M442,1220.2h-0.7v-0.7h0.7V1220.2z M443.5,1220.2h-0.7v-0.7h0.7V1220.2z M445,1220.2h-0.7
		v-0.7h0.7V1220.2z M446.5,1220.2h-0.7v-0.7h0.7V1220.2z M448,1220.2h-0.7v-0.7h0.7V1220.2z M449.6,1220.2h-0.7v-0.7h0.7V1220.2z
		 M451.1,1220.2h-0.7v-0.7h0.7V1220.2z M452.6,1220.2h-0.7v-0.7h0.7V1220.2z M454.1,1220.2h-0.7v-0.7h0.7V1220.2z M455.7,1220.2H455
		v-0.7h0.7V1220.2z M457.2,1220.2h-0.7v-0.7h0.7V1220.2z M458.7,1220.2H458v-0.7h0.7V1220.2z M460.2,1220.2h-0.7v-0.7h0.7V1220.2z
		 M461.7,1220.2H461v-0.7h0.7V1220.2z M463.3,1220.2h-0.7v-0.7h0.7V1220.2z M464.8,1220.2H464v-0.7h0.7L464.8,1220.2L464.8,1220.2z
		 M466.3,1220.2h-0.7v-0.7h0.7V1220.2z M467.8,1220.2h-0.7v-0.7h0.7V1220.2z M469.4,1220.2h-0.7v-0.7h0.7V1220.2z M470.9,1220.2
		h-0.7v-0.7h0.7V1220.2z M472.5,1220.2h-0.7v-0.7h0.7V1220.2z M473.9,1220.2h-0.7v-0.7h0.7V1220.2z M475.5,1220.2h-0.7v-0.7h0.7
		V1220.2z M477,1220.2h-0.7v-0.7h0.7V1220.2z M478.6,1220.2h-0.7v-0.7h0.7V1220.2z M480.1,1220.2h-0.7v-0.7h0.7V1220.2z
		 M481.5,1220.2h-0.7v-0.7h0.7V1220.2z M483.1,1220.2h-0.7v-0.7h0.7V1220.2z M391.3,972.4c0,4.5-3.6,8.1-8.1,8.1h-0.1
		c-4.5,0-8.1-3.6-8.1-8.1v-23.1c0-4.5,3.6-8.1,8.1-8.1h0.1c4.5,0,8.1,3.6,8.1,8.1V972.4z M484.6,1220.2h-0.7v-0.7h0.7V1220.2z
		 M486.2,1220.2h-0.7v-0.7h0.7V1220.2z M487.6,1220.2h-0.7v-0.7h0.7V1220.2z M489.2,1220.2h-0.7v-0.7h0.7V1220.2z M490.7,1220.2H490
		v-0.7h0.7V1220.2z M492.3,1220.2h-0.7v-0.7h0.7V1220.2z M493.8,1220.2H493v-0.7h0.7L493.8,1220.2L493.8,1220.2z M495.3,1220.2h-0.7
		v-0.7h0.7V1220.2z M496.8,1220.2h-0.7v-0.7h0.7V1220.2z M498.4,1220.2h-0.7v-0.7h0.7V1220.2z M499.9,1220.2h-0.7v-0.7h0.7V1220.2z
		 M501.4,1220.2h-0.7v-0.7h0.7V1220.2z M502.9,1220.2h-0.7v-0.7h0.7V1220.2z M504.4,1220.2h-0.7v-0.7h0.7V1220.2z M506,1220.2h-0.7
		v-0.7h0.7V1220.2z M507.5,1220.2h-0.7v-0.7h0.7V1220.2z M509,1220.2h-0.7v-0.7h0.7V1220.2z M510.5,1220.2h-0.7v-0.7h0.7V1220.2z
		 M512.1,1220.2h-0.7v-0.7h0.7V1220.2z M513.6,1220.2h-0.7v-0.7h0.7V1220.2z M515.1,1220.2h-0.7v-0.7h0.7V1220.2z M516.6,1220.2
		h-0.7v-0.7h0.7V1220.2z M518.2,1220.2h-0.7v-0.7h0.7V1220.2z M519.7,1220.2H519v-0.7h0.7V1220.2z M521.2,1220.2h-0.7v-0.7h0.7
		V1220.2z M522.7,1220.2H522v-0.7h0.7V1220.2z M524.2,1220.2h-0.7v-0.7h0.7V1220.2z M525.8,1220.2H525v-0.7h0.7L525.8,1220.2
		L525.8,1220.2z M527.3,1220.2h-0.7v-0.7h0.7V1220.2z M528.8,1220.2h-0.7v-0.7h0.7V1220.2z M530.3,1220.2h-0.7v-0.7h0.7V1220.2z
		 M531.1,993.8c0,3-2.5,5.4-5.4,5.4H439c-3,0-5.4-2.5-5.4-5.4v-57.7c0-3,2.5-5.4,5.4-5.4h86.7c3,0,5.4,2.5,5.4,5.4L531.1,993.8z
		 M531.9,1220.2h-0.7v-0.7h0.7V1220.2z M533.4,1220.2h-0.7v-0.7h0.7V1220.2z M534.9,1220.2h-0.7v-0.7h0.7V1220.2z M536.4,1220.2
		h-0.7v-0.7h0.7V1220.2z M538,1220.2h-0.7v-0.7h0.7V1220.2z M539.5,1220.2h-0.7v-0.7h0.7V1220.2z M541,1220.2h-0.7v-0.7h0.7V1220.2z
		 M542.5,1220.2h-0.7v-0.7h0.7V1220.2z M544,1220.2h-0.7v-0.7h0.7V1220.2z M545.6,1220.2h-0.7v-0.7h0.7V1220.2z M547.1,1220.2h-0.7
		v-0.7h0.7V1220.2z M548.7,1220.2H548v-0.7h0.7V1220.2z M550.1,1220.2h-0.7v-0.7h0.7V1220.2z M551.7,1220.2H551v-0.7h0.7V1220.2z
		 M553.2,1220.2h-0.7v-0.7h0.7V1220.2z M554.8,1220.2H554v-0.7h0.7L554.8,1220.2L554.8,1220.2z M556.2,1220.2h-0.7v-0.7h0.7V1220.2z
		 M557.7,1220.2H557v-0.7h0.7V1220.2z M559.3,1220.2h-0.7v-0.7h0.7V1220.2z M560.8,1220.2H560v-0.7h0.7L560.8,1220.2L560.8,1220.2z
		 M562.4,1220.2h-0.7v-0.7h0.7V1220.2z M563.8,1220.2h-0.7v-0.7h0.7V1220.2z M565.4,1220.2h-0.7v-0.7h0.7V1220.2z M566.9,1220.2
		h-0.7v-0.7h0.7V1220.2z M568.5,1220.2h-0.7v-0.7h0.7V1220.2z M570,1220.2h-0.7v-0.7h0.7V1220.2z M571.5,1220.2h-0.7v-0.7h0.7
		V1220.2z M573,1220.2h-0.7v-0.7h0.7V1220.2z"/>
	<path fill="#FFFFFF" d="M349,989.1L349,989.1l-0.7,0.1c-65.3,4.7-116.9,59.2-116.9,125.6c0,69.4,56.5,125.9,125.9,125.9
		c24.7,0,48.7-7.2,69.2-20.7c35.5-23.5,56.5-62.8,56.5-105.2c0-69.4-56.5-125.9-125.9-125.9c-1.2,0-2.5,0-3.6,0.1v0.3h-0.7v-0.2
		c-0.2,0-0.5,0-0.7,0v0.2h-0.7v-0.2c-0.2,0-0.5,0-0.7,0v0.1H350v-0.1C349.6,989,349.3,989,349,989.1z M357.2,1009.1
		c58.3,0,105.7,47.4,105.7,105.7c0,58.3-47.4,105.7-105.7,105.7s-105.7-47.4-105.7-105.7C251.5,1056.4,298.9,1009.1,357.2,1009.1z"
		/>
	<path fill="#FFFFFF" d="M357.2,1219.7c57.8,0,104.9-47.1,104.9-104.9s-47.1-104.9-104.9-104.9s-104.9,47.1-104.9,104.9
		C252.3,1172.6,299.3,1219.7,357.2,1219.7z M357.2,1013c56.2,0,101.8,45.7,101.8,101.8c0,56.1-45.7,101.7-101.8,101.7
		c-56.2,0-101.8-45.7-101.8-101.8C255.4,1058.6,301.1,1013,357.2,1013z"/>
	<path fill="#FFFFFF" d="M357.2,1215.9c55.7,0,101.1-45.4,101.1-101.1s-45.4-101.1-101.1-101.1s-101,45.4-101,101.1
		C256.2,1170.6,301.4,1215.9,357.2,1215.9z M357.2,1022.1c51.1,0,92.7,41.6,92.7,92.7c0,51.1-41.6,92.7-92.7,92.7
		s-92.7-41.6-92.7-92.7C264.5,1063.7,306.1,1022.1,357.2,1022.1z"/>
	<path fill="#FFFFFF" d="M391.4,1035.7c0.3-0.7,0-1.5-0.7-1.9l-2.7-1l-1,2.6l2.7,1C390.4,1036.9,391.1,1036.5,391.4,1035.7z"/>
	<path fill="#FFFFFF" d="M355.3,1030.2c0.9,0,1.3-0.7,1.3-1.4c0-0.8-0.6-1.3-1.4-1.3l-2.7,0.1l0.1,2.8L355.3,1030.2z"/>
	<path fill="#FFFFFF" d="M327.1,1194.2l-1,2.8l2.3,0.8c1,0.4,1.9,0,2.2-0.7c0.3-1-0.1-1.7-1.3-2.1L327.1,1194.2z"/>
	<path fill="#FFFFFF" d="M357.2,1206.8c50.6,0,91.9-41.2,91.9-91.9c0-50.7-41.2-91.9-91.9-91.9s-91.9,41.2-91.9,91.9
		C265.3,1165.6,306.6,1206.8,357.2,1206.8z M276.9,1140.8c0,0.3,0,0.5,0,0.7c0,1.3-0.1,2.1-1.1,2.4c-1,0.4-2.2-0.4-2.6-2
		c-0.3-1-0.2-2.1,0-2.8c0.1-0.1,0.1-0.2,0.2-0.2c0.1-0.1,0.3,0,0.3,0.1s0,0.1,0,0.3c-0.2,0.6-0.3,1.4,0,2.5c0.4,1.2,1.1,1.8,1.9,1.5
		c0.7-0.2,0.8-1.1,0.8-2.5c0-0.4,0-0.7,0-0.9c0.1-1.4,0.5-2,1.2-2.2c1.1-0.4,2.2,0.6,2.5,2c0.2,0.8,0.3,1.6,0.1,2.4
		c0,0.1-0.1,0.1-0.1,0.2c-0.1,0.1-0.3,0-0.4-0.1c0-0.1,0-0.1,0-0.1c0.1-0.7,0.1-1.4-0.1-2.1c-0.3-1-1-1.8-1.9-1.5
		C277,1138.6,276.9,1139.3,276.9,1140.8z M357.2,1037.7c20.9,0,41.4,8.6,56,23.6c14.2,14.5,21.8,33.6,21.2,53.6
		c-1,41.4-35.7,76.1-77.2,77.2c-0.7,0-1.4,0-2.1,0c-20,0-39-8.2-53.2-22.9c-14.2-14.7-21.9-34-22-54.3
		C279.9,1072.3,314.5,1037.7,357.2,1037.7z M281.7,1154.9c-1.6,0.7-3.1,0.2-3.9-1.4s-0.3-3.2,1.3-3.9l0.7-0.4l2.9-1.3
		c0.1-0.1,0.4,0,0.4,0.1c0.1,0.1,0,0.4-0.1,0.4l-2.9,1.4l-0.7,0.4c-1.2,0.6-1.8,1.7-1,3.1c0.8,1.4,1.9,1.7,3.1,1.1l0.7-0.4l2.9-1.4
		c0.1-0.1,0.4,0,0.4,0.1c0.1,0.1,0,0.4-0.1,0.4l-2.9,1.3L281.7,1154.9z M288.6,1164.1c-0.4-0.1-0.9-0.4-1.3-0.9l-1.4-2.1l-2.4,1.6
		c-0.1,0.1-0.3,0.1-0.4-0.1c-0.1-0.1-0.1-0.3,0.1-0.4l2.8-1.9l2.6-1.8c0.1-0.1,0.4-0.1,0.4,0.1l1.6,2.4c0.7,1.1,0.5,2.3-0.4,2.9
		C289.6,1164.1,289.1,1164.3,288.6,1164.1z M295.5,1168l-1.9,1.7l1.4,1.7c0.1,0.1,0.1,0.3,0,0.4c0,0,0,0-0.1,0
		c-0.2,0.2-0.4,0.2-0.4,0.1l-1.4-1.7l-2.1,1.9l2.5,2.8c0.1,0.1,0.1,0.3,0,0.4s-0.3,0.1-0.4,0l-2.8-3.1c-0.1-0.1-0.1-0.3,0-0.4
		l2.5-2.2l2.4-2.2c0.1-0.1,0.3-0.1,0.4,0l2.8,3.1c0.1,0.1,0.1,0.3,0,0.4c-0.1,0.1-0.3,0.1-0.4,0L295.5,1168z M305.7,1179.9
		c-0.4,0.4-0.9,0.7-1.4,0.7s-0.8-0.1-1.2-0.3l-0.7,3.1c0,0.1,0,0.1-0.1,0.1c-0.1,0.1-0.3,0.1-0.4,0s-0.1-0.2-0.1-0.3l0.8-3.3l-2-1.7
		l-1.9,2.2c-0.1,0.1-0.3,0.1-0.4,0c-0.1-0.1-0.1-0.3,0-0.4l2.2-2.6l2.1-2.4c0.1-0.1,0.3-0.1,0.4,0l2.4,2
		C306.4,1177.9,306.4,1179.1,305.7,1179.9z M322.3,1188.3c-0.1,0.1-0.2,0.2-0.4,0.1l-3.4-1.8l-1.1,2.3l2,1c0.1,0.1,0.2,0.2,0.1,0.4
		c0,0,0,0-0.1,0.1c-0.1,0.1-0.2,0.1-0.4,0.1l-2-1l-1.3,2.5l3.3,1.8c0.1,0.1,0.2,0.2,0.1,0.4c-0.1,0.1-0.2,0.2-0.4,0.1l-3.6-1.9
		c-0.1-0.1-0.2-0.3-0.1-0.4l1.5-3l1.4-2.8c0.1-0.1,0.3-0.2,0.4-0.1l3.6,1.9C322.3,1188,322.4,1188.1,322.3,1188.3z M331.6,1193.7
		c-0.2,0.7-0.7,1-1.5,1c0.2,0.1,0.4,0.2,0.5,0.4c0.5,0.5,0.7,1.2,0.4,1.9c-0.3,0.9-1.3,1.6-2.9,1l-2.5-0.9c-0.1-0.1-0.2-0.2-0.2-0.4
		l1.1-3.1l1-3c0.1-0.1,0.2-0.2,0.4-0.2l2.3,0.8C331.4,1191.7,332.1,1192.7,331.6,1193.7z M343.6,1196.5c-0.1,0-0.1-0.1-0.2-0.1
		c-0.4-0.7-0.9-1.3-2.1-1.6c-1.8-0.4-3.1,0.8-3.4,2.4v0.1c-0.3,1.6,0.4,3.3,2.2,3.6c1,0.2,1.9-0.1,2.5-0.7c0.1-0.1,0.1-0.1,0.2-0.1
		c0.3,0.1,0.4,0.2,0.4,0.4c0,0.1-0.1,0.1-0.1,0.2c-0.7,0.6-1.7,1-3,0.7c-2.2-0.4-3.1-2.3-2.8-4.3v0c0.4-1.9,2.2-3.2,4.2-2.8
		c1.2,0.2,2,1,2.5,1.9c0,0.1,0.1,0.1,0.1,0.2C344,1196.5,343.8,1196.5,343.6,1196.5z M359.7,1198.9h-1.2v0.5l0.1,3.4
		c-0.1,0.1-0.2,0.3-0.4,0.3c-0.1,0-0.3-0.1-0.3-0.3l-0.1-3.4v-0.4H357c-0.1,0-0.3-0.1-0.3-0.2s0.1-0.3,0.2-0.3h0.7v-0.7
		c0-1.1,0.4-1.9,1.7-1.9h0.2c0.1,0,0.3,0.1,0.3,0.2c0,0.1-0.1,0.3-0.2,0.3h-0.2c-0.7,0-1,0.3-1,1.3v0.7h1.2c0.1,0,0.3,0.1,0.3,0.2
		C359.9,1198.8,359.8,1198.9,359.7,1198.9z M365.7,1198.3c0-0.1,0.1-0.3,0.2-0.3l3.4-0.4c0.1,0,0.3,0.1,0.3,0.2
		c0.1,0.1-0.1,0.3-0.2,0.3l-3.4,0.4C365.9,1198.5,365.7,1198.4,365.7,1198.3z M369.7,1199.9l-3.4,0.4c-0.1,0-0.3-0.1-0.3-0.2
		c0-0.1,0.1-0.3,0.2-0.3l3.4-0.4c0.1,0,0.3,0.1,0.3,0.2C370,1199.8,369.8,1199.9,369.7,1199.9z M389.7,1196.8l-4.4,1.6
		c-0.1,0.1-0.3,0-0.4-0.1c-0.6-1.8,0-2.6,1-3.7c0.1-0.1,0.2-0.2,0.3-0.3c1-1.1,1.3-1.7,1.1-2.4c-0.3-0.7-1-0.9-2.2-0.5
		c-0.7,0.3-1.3,0.7-1.8,1.3c0,0.1-0.1,0.1-0.1,0.1c-0.1,0.1-0.3,0-0.4-0.1s0-0.3,0.2-0.5c0.4-0.6,1.1-1,1.9-1.3
		c1.3-0.5,2.5-0.2,2.9,0.8c0.2,0.7,0.1,1.2-0.6,2.2c-0.2,0.2-0.4,0.5-0.7,0.8c-1.2,1.2-1.7,1.9-1.2,3.1l4.1-1.5
		c0.1-0.1,0.3,0,0.4,0.1C389.9,1196.6,389.9,1196.8,389.7,1196.8z M398.3,1193c-1,0.5-1.9,0.6-2.7,0.4c-0.1,0-0.1-0.1-0.2-0.1
		c-0.1-0.1,0-0.3,0.1-0.4c0.1,0,0.1-0.1,0.2,0c0.7,0.1,1.4,0.1,2.4-0.3c1-0.5,1.5-1.5,1-2.4c-0.4-0.7-1.3-1-2.6-0.4l-0.5,0.3
		c-0.1,0-0.1,0-0.1,0c-0.1,0-0.2-0.1-0.2-0.1c-0.1-0.1,0-0.3,0.1-0.4l0.6-0.3c0.9-0.4,1.2-1.3,0.8-2c-0.4-0.7-1.1-0.8-2-0.4
		c-0.4,0.2-0.8,0.6-1,1c-0.1,0.1-0.1,0.1-0.2,0.2c-0.1,0.1-0.3,0-0.4-0.1s0-0.3,0.1-0.4c0.4-0.5,0.8-0.9,1.3-1.2
		c1.1-0.6,2.2-0.4,2.8,0.5c0.3,0.5,0.3,1.2-0.3,2c0.3-0.1,0.5-0.1,0.8-0.1c0.6,0,1.2,0.4,1.6,1C400.4,1191,399.8,1192.3,398.3,1193z
		 M412.8,1183.5c-0.1,0.1-0.3,0.1-0.4-0.1l-1.4-1.9c-0.2-0.4-0.5-0.6-0.8-0.7c-0.4-0.1-0.8,0-1.2,0.3c-0.4,0.3-0.6,0.7-0.6,1.1
		c0,0.4,0.1,0.7,0.4,1.1l1.3,1.9c0.1,0.1,0.1,0.3-0.1,0.4c-0.1,0.1-0.3,0.1-0.4-0.1l-1.4-1.9c-0.2-0.3-0.5-0.5-0.8-0.7
		c-0.4-0.1-0.8-0.1-1.3,0.2c-0.4,0.3-0.6,0.7-0.6,1.1c0,0.4,0.1,0.7,0.4,1.2l1.3,1.9c0.1,0.1,0.1,0.3-0.1,0.4
		c-0.1,0.1-0.3,0.1-0.4-0.1l-2.1-2.8l-0.4-0.5c-0.1-0.1-0.1-0.3,0.1-0.4c0.1-0.1,0.3-0.1,0.4,0.1l0.3,0.4c-0.1-0.7,0.1-1.3,0.8-1.8
		c0.7-0.5,1.4-0.5,2.1-0.1c-0.1-0.9,0.2-1.5,0.9-2c0.7-0.5,1.3-0.5,2.1-0.1c0.3,0.1,0.6,0.4,0.8,0.7l1.4,1.9
		C412.9,1183.2,412.9,1183.4,412.8,1183.5z M423.6,1173.2c-0.1,0.1-0.3,0.1-0.4,0l-1.7-1.6c-0.3-0.3-0.6-0.4-1-0.5
		c-0.4-0.1-0.7,0.1-1.1,0.4c-0.4,0.4-0.4,0.8-0.4,1.2c0.1,0.4,0.2,0.7,0.6,1l1.6,1.5c0.1,0.1,0.1,0.3,0,0.4s-0.3,0.1-0.4,0l-1.8-1.5
		c-0.3-0.3-0.6-0.4-0.9-0.5c-0.4-0.1-0.8,0.1-1.2,0.4c-0.3,0.4-0.4,0.7-0.4,1.2c0.1,0.4,0.2,0.7,0.6,1.1l1.6,1.5
		c0.1,0.1,0.1,0.3,0,0.4c-0.1,0.1-0.3,0.1-0.4,0l-2.5-2.4l-0.5-0.4c-0.1-0.1-0.1-0.3,0-0.4c0.1-0.1,0.3-0.1,0.4,0l0.4,0.4
		c-0.1-0.7,0-1.3,0.5-1.9c0.6-0.6,1.3-0.7,2-0.5c-0.2-0.8,0-1.5,0.5-2.2c0.6-0.6,1.3-0.7,2-0.5c0.3,0.1,0.6,0.3,0.9,0.6l1.8,1.7
		C423.7,1172.8,423.7,1173,423.6,1173.2z M433.6,1159.2c-0.1,0.1-0.3,0.2-0.4,0.1l-2.9-1.7l-2.5-1.4l-0.4,1.4c0,0.1,0,0.1-0.1,0.1
		c-0.1,0.1-0.2,0.2-0.4,0.1c-0.1-0.1-0.1-0.2-0.1-0.4l0.4-1.8c0-0.1,0.1-0.1,0.1-0.2c0.1-0.1,0.3-0.2,0.4-0.1l2.8,1.7l2.9,1.7
		C433.6,1158.8,433.6,1159,433.6,1159.2z M434.2,1150.9c-0.1,0.2-0.4,0.3-0.6,0.2c0,0,0,0-0.1,0c-0.1-0.1-0.2-0.4-0.1-0.5
		c0.1-0.2,0.3-0.3,0.5-0.2h0.1C434.2,1150.4,434.4,1150.7,434.2,1150.9z M437.1,1152.3c-0.1,0.2-0.4,0.3-0.6,0.2s-0.3-0.4-0.2-0.6
		c0.1-0.2,0.4-0.3,0.6-0.2C437.1,1151.7,437.2,1152.1,437.1,1152.3z M441.5,1140.8l-1.5,4.5c-0.1,0.1-0.2,0.2-0.4,0.1
		c-1.8-0.6-2.1-1.6-2.2-3.2c0-0.1,0-0.3-0.1-0.4c-0.2-1.5-0.4-2.2-1.1-2.4c-0.7-0.2-1.3,0.2-1.8,1.3c-0.2,0.7-0.3,1.5,0,2.2
		c0,0.1,0,0.1,0,0.1c-0.1,0.1-0.2,0.2-0.3,0.1c-0.1-0.1-0.2-0.2-0.3-0.5c-0.1-0.7-0.1-1.5,0.1-2.3c0.4-1.4,1.4-2.2,2.5-1.8
		c0.7,0.2,1,0.7,1.3,1.9c0.1,0.3,0.1,0.7,0.1,1.1c0.1,1.7,0.4,2.5,1.7,2.9l1.3-4.1c0.1-0.1,0.2-0.2,0.4-0.1
		C441.5,1140.5,441.5,1140.7,441.5,1140.8z M445.4,1111.4c0,0.8-0.1,1.6-0.6,2.3c-0.1,0.1-0.1,0.1-0.2,0.1s-0.3-0.1-0.3-0.3
		c0-0.1,0-0.1,0.1-0.1c0.4-0.7,0.5-1.3,0.5-2c-0.1-1.1-0.4-2-1.3-2c-0.7,0-1,0.6-1.4,2.1c-0.1,0.3-0.1,0.5-0.2,0.8
		c-0.4,1.2-0.7,1.9-1.8,2c-1.1,0.1-1.9-0.9-2-2.6c-0.1-1,0.3-2.1,0.7-2.8c0.1-0.1,0.1-0.1,0.2-0.1s0.2,0.1,0.2,0.2s0,0.1-0.1,0.2
		c-0.4,0.5-0.7,1.3-0.7,2.4c0.1,1.3,0.6,2,1.3,2c0.8,0,1.1-0.8,1.4-2.2c0.1-0.3,0.1-0.6,0.3-0.9c0.4-1.3,1-1.9,1.8-1.9
		C444.7,1108.8,445.3,1110,445.4,1111.4z M443.5,1096.4c0,0.1,0,0.2-0.1,0.2l-3,3.2l-2.2,2.3l2.5-0.4l3.3-0.6c0.1,0,0.3,0.1,0.4,0.2
		c0,0.1-0.1,0.3-0.2,0.4l-3.3,0.6l-3.3,0.6c-0.1,0-0.3-0.1-0.4-0.2c0-0.1,0-0.1,0.1-0.2l3-3.3l2.1-2.3l-2.5,0.4l-3.3,0.6
		c-0.1,0-0.3-0.1-0.4-0.2c0-0.1,0.1-0.3,0.2-0.4l3.3-0.6l3.3-0.6C443.3,1096.1,443.5,1096.2,443.5,1096.4z M439.9,1085.1
		c0.1-0.1,0.4,0,0.4,0.2l1.3,3.9c0.1,0.1,0,0.3-0.1,0.4s-0.3,0-0.4-0.1l-1.2-3.6l-2.5,0.8l0.7,2.1c0.1,0.1,0,0.3-0.1,0.4h-0.1
		c-0.1,0-0.2-0.1-0.3-0.2l-0.7-2.1l-2.7,0.9l1.2,3.6c0.1,0.1,0,0.3-0.1,0.4s-0.3,0-0.4-0.1l-1.3-4c-0.1-0.1,0-0.4,0.2-0.4l3.1-1
		L439.9,1085.1z M429.6,1077.5l2.9-1.4l3-1.3c0.1-0.1,0.4,0,0.4,0.1c0.1,0.1,0,0.4-0.1,0.4l-3,1.4l-2.7,1.3l1.7,3.4
		c0.1,0.1,0,0.3-0.1,0.4c-0.1,0.1-0.3,0-0.4-0.1l-1.9-3.7C429.4,1077.8,429.5,1077.6,429.6,1077.5z M419.4,1062.6l2.5-2.1l2.7-2.1
		c0.1-0.1,0.3-0.1,0.4,0.1c0.1,0.1,0.1,0.3-0.1,0.4l-2.6,2.1l-2.4,1.9l2.4,3c0.1,0.1,0.1,0.3-0.1,0.4c-0.1,0.1-0.3,0.1-0.4-0.1
		l-2.6-3.2C419.3,1062.9,419.3,1062.8,419.4,1062.6z M410.7,1053.7c0-0.1,0.1-0.1,0.1-0.1l3.3-1.3l3.4-1.4c0.1-0.1,0.2-0.1,0.4,0.1
		c0.1,0.1,0.1,0.2,0.1,0.4l-1.2,3.5l-1.1,3.4c0,0.1,0,0.1-0.1,0.1c-0.1,0.1-0.3,0.1-0.4,0s-0.1-0.2-0.1-0.4l0.7-2l-2.7-2.5l-2,0.8
		c-0.1,0.1-0.2,0.1-0.4-0.1C410.6,1054,410.6,1053.8,410.7,1053.7z M403.4,1043.9c1.1-1.7,3.3-2.2,5.1-0.9c1,0.7,1.4,1.8,1.4,2.7
		c0,0.1,0,0.1-0.1,0.2s-0.3,0.1-0.4,0.1c-0.1-0.1-0.1-0.1-0.1-0.2c-0.1-0.8-0.3-1.6-1.2-2.3c-1.5-1-3.2-0.4-4.2,0.8
		c-0.9,1.3-0.9,3.1,0.6,4.2c0.9,0.6,1.7,0.6,2.5,0.4c0.1,0,0.1,0,0.2,0c0.1,0.1,0.1,0.3,0.1,0.4c-0.1,0.1-0.1,0.1-0.2,0.1
		c-0.9,0.3-2,0.2-3-0.4C402.5,1047.7,402.3,1045.6,403.4,1043.9z M395.7,1043.3l1.6-3l1.6-2.9c0.1-0.1,0.3-0.2,0.4-0.1
		s0.2,0.3,0.1,0.4l-1.6,2.9l-1.6,3c-0.1,0.1-0.3,0.2-0.4,0.1C395.7,1043.7,395.7,1043.5,395.7,1043.3z M385.2,1038.3l1.2-3.1l1.1-3
		c0.1-0.1,0.2-0.2,0.4-0.1l2.8,1.1c1.3,0.5,1.8,1.6,1.3,2.7c-0.2,0.6-0.7,1-1.3,1.1c-0.3,0.1-0.6,0.1-0.9,0l0.2,3.1
		c0,0.1,0,0.1,0,0.1c-0.1,0.1-0.2,0.2-0.4,0.1c-0.1-0.1-0.2-0.1-0.2-0.3l-0.2-3.4l-2.5-1l-1,2.8c-0.1,0.1-0.2,0.2-0.4,0.1
		C385.2,1038.6,385.1,1038.5,385.2,1038.3z M375,1035.6l0.7-3.1l0.7-3.4c0.1-0.1,0.2-0.3,0.4-0.2l3.9,1c0.1,0.1,0.2,0.2,0.2,0.4
		c-0.1,0.1-0.2,0.2-0.4,0.2l-3.6-0.9l-0.6,2.5l2.2,0.5c0.1,0.1,0.2,0.2,0.2,0.4v0.1c-0.1,0.1-0.1,0.1-0.3,0.1l-2.2-0.5l-0.7,2.8
		l3.6,0.9c0.1,0.1,0.2,0.2,0.2,0.4c0,0.2-0.2,0.2-0.4,0.2l-3.9-1C375.1,1035.9,375,1035.7,375,1035.6z M363.5,1030.4l0.4-3.3
		c0-0.1,0.1-0.3,0.4-0.3c0.2,0,0.3,0.1,0.3,0.4l-0.3,3l4.2,0.4l0.3-3c0-0.1,0.1-0.3,0.4-0.3c0.1,0,0.3,0.1,0.3,0.4l-0.4,3.3
		l-0.4,3.3c0,0.1-0.1,0.3-0.4,0.3c-0.2,0-0.3-0.1-0.3-0.4l0.3-3.1l-4.2-0.4l-0.3,3.1c0,0.1-0.1,0.3-0.4,0.3c-0.2,0-0.3-0.1-0.3-0.4
		L363.5,1030.4z M352.2,1026.9l2.8-0.1c1.3-0.1,2.2,0.7,2.3,1.9c0,0.6-0.2,1.2-0.7,1.6c-0.4,0.3-0.8,0.4-1.4,0.5l-2.5,0.1l0.1,2.9
		c0,0.1-0.1,0.3-0.3,0.3c-0.1,0-0.3-0.1-0.3-0.3l-0.1-3.4l-0.1-3.2C351.9,1027,352,1026.9,352.2,1026.9z M342.4,1027.8
		c0.8-0.1,1.6-0.1,2.4,0.3c0.1,0.1,0.1,0.1,0.1,0.2c0,0.1-0.1,0.3-0.2,0.3s-0.1,0-0.1,0c-0.7-0.3-1.4-0.3-2.1-0.2
		c-1,0.1-1.9,0.7-1.8,1.6c0.1,0.7,0.7,1,2.3,1.2c0.3,0.1,0.6,0.1,0.8,0.1c1.2,0.2,2,0.5,2.2,1.4c0.2,1.1-0.7,2.1-2.3,2.3
		c-1,0.1-2.1,0-2.8-0.4c-0.1-0.1-0.1-0.1-0.2-0.2c0-0.1,0.1-0.3,0.2-0.3s0.1,0,0.3,0.1c0.6,0.3,1.3,0.5,2.4,0.4
		c1.3-0.2,1.9-0.8,1.8-1.6c-0.1-0.8-1-1-2.3-1.2c-0.4-0.1-0.6-0.1-0.9-0.1c-1.4-0.3-1.9-0.8-2.1-1.5
		C339.9,1028.8,341,1028.1,342.4,1027.8z M329.5,1038.4l0.4-3.5l0.3-3.8c0-0.1,0.1-0.2,0.2-0.3s0.2,0,0.4,0.1l2.5,2.8l2.4,2.6
		l0.1,0.1c0.1,0.1,0,0.3-0.2,0.4c-0.1,0.1-0.2,0-0.3-0.1l-1.4-1.6l-3.5,1.1l-0.2,2.2c0,0.1-0.1,0.2-0.2,0.3s-0.3,0-0.4-0.1
		C329.5,1038.5,329.5,1038.5,329.5,1038.4z M286.8,1061.7c0.1-0.1,0.2-0.1,0.4-0.1l3.6,0.8l3.4,0.7c0.1,0,0.1,0,0.1,0.1
		c0.1,0.1,0.1,0.3,0.1,0.4c-0.1,0.1-0.2,0.1-0.3,0.1l-2.1-0.4l-2.2,2.9l1,1.9c0.1,0.1,0.1,0.2,0,0.4c-0.1,0.1-0.3,0.1-0.4,0.1
		s-0.1-0.1-0.1-0.1l-1.7-3.1l-1.9-3.3C286.7,1062,286.7,1061.9,286.8,1061.7z M280,1072.1c0.6-1.1,1.5-1.6,2.5-1.8
		c0.1,0,0.1,0,0.2,0c0.1,0.1,0.2,0.2,0.1,0.4c-0.1,0.1-0.1,0.1-0.2,0.1c-0.8,0.1-1.6,0.4-2.2,1.4c-0.9,1.6-0.1,3.3,1.3,4
		c1.4,0.7,3.2,0.5,4.1-1c0.5-1,0.4-1.8,0.1-2.6c-0.1-0.1-0.1-0.1,0-0.2c0.1-0.1,0.2-0.2,0.4-0.1c0.1,0.1,0.1,0.1,0.1,0.1
		c0.4,0.8,0.4,1.9-0.1,3.1c-1,1.9-3.1,2.3-4.9,1.3C279.7,1076.1,278.9,1074,280,1072.1z M275.4,1081.8c0.1-0.1,0.2-0.2,0.4-0.1
		l3.1,1.2l3.1,1.2c0.1,0.1,0.2,0.2,0.1,0.4c-0.1,0.2-0.2,0.2-0.4,0.1l-3.1-1.2l-3.1-1.2C275.4,1082.1,275.3,1082,275.4,1081.8z
		 M271.9,1092.8l1.1-3.9c0.1-0.1,0.2-0.2,0.4-0.2c0.1,0.1,0.2,0.2,0.2,0.4l-1,3.6l2.5,0.7l0.6-2.2c0.1-0.1,0.2-0.2,0.4-0.2
		c0,0,0.1,0,0.1,0.1c0.1,0.1,0.1,0.1,0.1,0.3l-0.6,2.2l2.7,0.7l1-3.6c0.1-0.1,0.2-0.2,0.4-0.2c0.1,0.1,0.2,0.2,0.2,0.4l-1.1,3.9
		c-0.1,0.1-0.2,0.3-0.4,0.2l-3.1-0.8l-3.1-0.8C271.9,1093.1,271.8,1092.9,271.9,1092.8z M270.1,1103.6l3.3,0.4l3,0.4l0.5-3.8
		c0-0.1,0.1-0.3,0.3-0.2c0.1,0,0.2,0.1,0.2,0.3l-0.6,4.1c0,0.1-0.1,0.3-0.4,0.3l-3.2-0.4l-3.3-0.4c-0.1,0-0.3-0.1-0.3-0.4
		C269.6,1103.7,269.9,1103.6,270.1,1103.6z"/>
	<path fill="#FFFFFF" d="M496.1,955h-26.7c-0.8,0-1.5,0.7-1.5,1.5v18.3c0,0.8,0.7,1.5,1.5,1.5h26.7c0.8,0,1.5-0.7,1.5-1.5v-18.3
		C497.6,955.7,496.9,955,496.1,955z M496.8,974.8c0,0.4-0.3,0.7-0.7,0.7h-26.7c-0.4,0-0.7-0.3-0.7-0.7v-18.3c0-0.4,0.3-0.7,0.7-0.7
		h26.7c0.4,0,0.7,0.3,0.7,0.7V974.8z"/>
	<path fill="#FFFFFF" d="M576.8,1092v-17.8c0-0.1,0.1-1.5-0.6-2.3c-0.1-0.1-0.3-0.2-0.4-0.3c-0.2-0.1-0.4-0.1-0.7-0.1H575
		c-0.2,0-0.5,0.1-0.7,0.1c-0.2,0.1-0.4,0.1-0.7,0.2l-10.8,5.8c-0.3,0.1-5.7,1.9-5.7,9.5v48.6c0,0.3,2,9.8,12.5,9.8h4.3h0.7h0.7h0.7
		v-21.7v-0.1l0.1-0.1c0.1-0.1,7.4-10.1,0.7-31.4V1092z"/>
	<path fill="#FFFFFF" d="M290.2,1161.4l-1.5-2.2l-2.4,1.6l1.5,2.2c0.5,0.8,1.3,0.9,2,0.4C290.5,1163,290.6,1162.2,290.2,1161.4z"/>
	<path fill="#FFFFFF" d="M330.2,1191.8l-2-0.7l-0.8,2.4l2.1,0.7c0.7,0.3,1.4-0.1,1.6-0.7C331.4,1192.8,331,1192.2,330.2,1191.8z"/>
	<path fill="#FFFFFF" d="M302.7,1175.7l-1.9,2.2l2.2,1.9c0.7,0.6,1.4,0.4,2-0.1c0.6-0.6,0.5-1.4-0.1-2L302.7,1175.7z"/>
	<polygon fill="#FFFFFF" points="416.4,1054.4 417.3,1051.5 414.6,1052.7 413.7,1053.2 416,1055.3 	"/>
	<polygon fill="#FFFFFF" points="289.4,1065.8 291.3,1063.3 290.3,1063.1 287.4,1062.3 288.9,1064.9 	"/>
	<polygon fill="#FFFFFF" points="332.6,1033.9 330.6,1031.6 330.3,1034.5 330.3,1035.6 333.3,1034.6 	"/>
</g>
</svg>
