<?xml version="1.0" encoding="utf-8"?>
<!-- Generator: Adobe Illustrator 18.1.1, SVG Export Plug-In . SVG Version: 6.00 Build 0)  -->
<!DOCTYPE svg PUBLIC "-//W3C//DTD SVG 1.1//EN" "http://www.w3.org/Graphics/SVG/1.1/DTD/svg11.dtd">
<svg version="1.1" id="Layer_1" xmlns="http://www.w3.org/2000/svg" xmlns:xlink="http://www.w3.org/1999/xlink" x="0px" y="0px"
	 viewBox="0 478.9 595.3 418.7" enable-background="new 0 478.9 595.3 418.7" xml:space="preserve">
<g id="Solid">
</g>
<g id="Colours">
</g>
<g id="Vertical">
</g>
<g id="Horizontal">
</g>
<g id="Lines">
</g>
<g id="Graphics">
</g>
<g id="Content">
	<g>
		<path fill="#FFFFFF" d="M246.1,543.4c-86.2,24.3-152.4,73.7-149,170.8h3.3c9.2-18.5,41.9-24.3,69.5-24.3
			c45.2,0,90.4,38.5,90.4,94.6c-0.8,64.4-49.4,113-112.2,113C60.3,897.6,0,814.7,0,727.6c0-139.8,120.5-226,246.1-248.7V543.4z
			 M581.1,543.4c-86.2,24.3-152.4,73.7-149,170.8h3.3c9.2-18.5,41.9-24.3,69.5-24.3c45.2,0,90.4,38.5,90.4,94.6
			c-0.8,64.4-49.4,113-112.2,113c-87.9,0-148.2-82.9-148.2-170c0-139.8,120.5-226.1,246.1-248.7L581.1,543.4L581.1,543.4z"/>
	</g>
	<g id="New_Symbol_7">
	</g>
</g>
</svg>
