<?xml version="1.0" encoding="utf-8"?>
<!-- Generator: Adobe Illustrator 18.1.1, SVG Export Plug-In . SVG Version: 6.00 Build 0)  -->
<!DOCTYPE svg PUBLIC "-//W3C//DTD SVG 1.1//EN" "http://www.w3.org/Graphics/SVG/1.1/DTD/svg11.dtd">
<svg version="1.1" id="Layer_1" xmlns="http://www.w3.org/2000/svg" xmlns:xlink="http://www.w3.org/1999/xlink" x="0px" y="0px"
	 viewBox="300 246.6 595.2 595.2" enable-background="new 300 246.6 595.2 595.2" xml:space="preserve">
<g id="Solid">
</g>
<g id="Colours">
	<g>
		<path fill="#FFFFFF" d="M766.6,519.6c-10,0-17.9,8.5-19.6,19.2h38.9C784.5,528.2,778.7,519.6,766.6,519.6z"/>
		<path fill="#FFFFFF" d="M597.6,246.6C433.3,246.6,300,379.9,300,544.2s133.3,297.6,297.6,297.6s297.6-133.3,297.6-297.6
			S761.9,246.6,597.6,246.6z M426.5,572c1.4,0,2.5,0,3.6-0.4c0.4,0,1.1,0,1.1,0c5,0,8.9,4,8.9,8.9c0,4.3-2.9,7.1-5.7,8.2
			c-4.7,1.4-8.9,2.2-13.6,2.2c-16.1,0-24.9-8.2-24.9-24.9v-44.9h-1.1c-5,0-8.9-4-8.9-8.9c0-5,4-8.9,8.9-8.9h1.4v-9.6
			c0-5.7,5-10.3,10.7-10.3c5.7,0,10.7,4.7,10.7,10.3v9.6h13.9c5,0,9.2,4,9.2,8.9c0,5-4.3,8.9-9.2,8.9h-13.9v42
			C417.7,569.1,420.4,572,426.5,572z M528.1,579.9c0,5.7-5,10.3-10.7,10.3c-5.8,0-10.7-4.7-10.7-10.3v-37.4c0-12.1-5-18.6-15.7-18.6
			c-10.3,0-16.4,7.4-16.4,18.9v37.1c0,5.7-5,10.3-10.7,10.3s-10.7-4.7-10.7-10.3v-94.8c0-5.7,5-10.3,10.7-10.3s10.7,4.7,10.7,10.3
			v31.7c3.6-7.8,14.3-11.8,23.9-11.8c18.6,0,29.6,12.1,29.6,32L528.1,579.9L528.1,579.9z M585.8,525.4
			c-13.9,2.5-22.1,13.6-22.1,30.7V580c0,5.7-5,10.3-10.7,10.3s-10.7-4.7-10.7-10.3v-64.2c0-5.7,5-10.3,10.7-10.3s10.7,4.7,10.7,10.3
			v3.6c3.6-8.5,12.8-14.3,19.9-14.3c6.1,0,10.3,4.3,10.3,10.3C594.1,520.7,590.9,524.6,585.8,525.4z M627.9,579.9
			c0,5.7-5,10.3-10.7,10.3s-10.7-4.7-10.7-10.3v-64.2c0-5.7,5-10.3,10.7-10.3s10.7,4.7,10.7,10.3V579.9z M618.3,492.6
			c-7.1,0-12.8-5.7-12.8-12.8c0-7.1,5.7-12.8,12.8-12.8s12.8,5.7,12.8,12.8C631.1,486.9,625.4,492.6,618.3,492.6z M720.3,520.3
			l-26.8,60.6c-2.5,5.7-6.4,7.8-11.4,7.8H681c-5,0-8.9-1.8-11.4-7.8L642.9,520l-0.7-0.4c-0.4-1.4-1.1-2.5-1.1-4.3
			c0-5.4,4.7-10,10.3-10c5,0,8.2,2.5,10.3,7.4l19.9,51l19.9-51.3c2.2-4.7,5.4-7.1,9.6-7.1c5.7,0,10,4.3,10,10
			C721.7,517.6,721,519.3,720.3,520.3z M796.2,553.2H747c2.2,10.7,10.7,19.6,22.1,19.6c6.7,0,12.8-1.8,18.6-6.1
			c1.4-1.1,2.9-1.8,5.4-1.8c4.7,0,8.5,4,8.5,8.5c0,2.5-1.1,4.7-2.9,6.4c-8.2,7.4-18.9,11-30.7,11c-24.6,0-43.5-18.2-43.5-42.8v-0.4
			c0-24.6,18.6-43.2,41.4-43.2c25.7,0,39.9,19.9,39.9,39.6C805.8,549.9,801.9,553.2,796.2,553.2z"/>
	</g>
</g>
<g id="Vertical">
</g>
<g id="Horizontal">
</g>
<g id="Lines">
</g>
<g id="Graphics">
</g>
<g id="Content">
	<g id="New_Symbol_7">
	</g>
</g>
</svg>
